<svg xmlns="http://www.w3.org/2000/svg" version="1.1" xmlns:xlink="http://www.w3.org/1999/xlink" xmlns:svgjs="http://svgjs.dev/svgjs" viewBox="0 0 800 800"><g stroke="hsl(10, 75%, 40%)" fill="none" stroke-linecap="round"><circle r="363" cx="400" cy="400" stroke-width="11" stroke-dasharray="35 31" stroke-dashoffset="25" transform="rotate(279, 400, 400)" opacity="0.05"></circle><circle r="346.5" cx="400" cy="400" stroke-width="11" stroke-dasharray="34 33" stroke-dashoffset="25" transform="rotate(263, 400, 400)" opacity="0.10"></circle><circle r="330" cx="400" cy="400" stroke-width="10" stroke-dasharray="55 43" stroke-dashoffset="25" transform="rotate(317, 400, 400)" opacity="0.14"></circle><circle r="313.5" cx="400" cy="400" stroke-width="10" stroke-dasharray="23 10" stroke-dashoffset="25" transform="rotate(79, 400, 400)" opacity="0.19"></circle><circle r="297" cx="400" cy="400" stroke-width="10" stroke-dasharray="24 37" stroke-dashoffset="25" transform="rotate(0, 400, 400)" opacity="0.23"></circle><circle r="280.5" cx="400" cy="400" stroke-width="10" stroke-dasharray="47 46" stroke-dashoffset="25" transform="rotate(257, 400, 400)" opacity="0.28"></circle><circle r="264" cx="400" cy="400" stroke-width="9" stroke-dasharray="29 15" stroke-dashoffset="25" transform="rotate(42, 400, 400)" opacity="0.32"></circle><circle r="247.5" cx="400" cy="400" stroke-width="9" stroke-dasharray="23 39" stroke-dashoffset="25" transform="rotate(134, 400, 400)" opacity="0.37"></circle><circle r="231" cx="400" cy="400" stroke-width="9" stroke-dasharray="47 20" stroke-dashoffset="25" transform="rotate(332, 400, 400)" opacity="0.41"></circle><circle r="214.5" cx="400" cy="400" stroke-width="8" stroke-dasharray="23 39" stroke-dashoffset="25" transform="rotate(342, 400, 400)" opacity="0.46"></circle><circle r="198" cx="400" cy="400" stroke-width="8" stroke-dasharray="31 27" stroke-dashoffset="25" transform="rotate(11, 400, 400)" opacity="0.50"></circle><circle r="181.5" cx="400" cy="400" stroke-width="8" stroke-dasharray="16 31" stroke-dashoffset="25" transform="rotate(83, 400, 400)" opacity="0.55"></circle><circle r="165" cx="400" cy="400" stroke-width="8" stroke-dasharray="33 47" stroke-dashoffset="25" transform="rotate(1, 400, 400)" opacity="0.59"></circle><circle r="148.5" cx="400" cy="400" stroke-width="7" stroke-dasharray="42 32" stroke-dashoffset="25" transform="rotate(63, 400, 400)" opacity="0.64"></circle><circle r="132" cx="400" cy="400" stroke-width="7" stroke-dasharray="13 14" stroke-dashoffset="25" transform="rotate(289, 400, 400)" opacity="0.68"></circle><circle r="115.5" cx="400" cy="400" stroke-width="7" stroke-dasharray="36 49" stroke-dashoffset="25" transform="rotate(133, 400, 400)" opacity="0.73"></circle><circle r="99" cx="400" cy="400" stroke-width="6" stroke-dasharray="17 46" stroke-dashoffset="25" transform="rotate(313, 400, 400)" opacity="0.77"></circle><circle r="82.5" cx="400" cy="400" stroke-width="6" stroke-dasharray="52 51" stroke-dashoffset="25" transform="rotate(168, 400, 400)" opacity="0.82"></circle><circle r="66" cx="400" cy="400" stroke-width="6" stroke-dasharray="29 27" stroke-dashoffset="25" transform="rotate(137, 400, 400)" opacity="0.86"></circle><circle r="49.5" cx="400" cy="400" stroke-width="6" stroke-dasharray="38 29" stroke-dashoffset="25" transform="rotate(352, 400, 400)" opacity="0.91"></circle><circle r="33" cx="400" cy="400" stroke-width="5" stroke-dasharray="55 41" stroke-dashoffset="25" transform="rotate(184, 400, 400)" opacity="0.95"></circle><circle r="16.5" cx="400" cy="400" stroke-width="5" stroke-dasharray="12 52" stroke-dashoffset="25" transform="rotate(204, 400, 400)" opacity="1.00"></circle></g></svg>