<svg xmlns="http://www.w3.org/2000/svg" version="1.1" xmlns:xlink="http://www.w3.org/1999/xlink" xmlns:svgjs="http://svgjs.dev/svgjs" viewBox="0 0 800 800"><defs><linearGradient x1="50%" y1="0%" x2="50%" y2="100%" id="ccchaos-grad"><stop stop-color="hsl(15, 100%, 50%)" stop-opacity="1" offset="0%"></stop><stop stop-color="hsl(13, 100%, 70%)" stop-opacity="1" offset="100%"></stop></linearGradient></defs><g stroke-width="2" stroke="url(#ccchaos-grad)" fill="none" stroke-linecap="round"><path d="M387.72 9.6C394.17 11 400.46 12.64 406.58 14.48 412.69 16.36 418.63 18.38 424.4 20.52 432.96 23.65 449.27 29.9 457.07 32.89 464.78 35.55 479.86 40.34 487.36 42.46 495.06 44.26 511.13 47.59 519.73 49.23 525.81 50.25 532.15 51.36 538.79 52.58 545.77 53.78 553.1 55.13 560.8 56.66 568.84 58.23 577.26 60.02 586.04 62.02 595.1 64.13 604.44 66.48 614.02 69.1 623.7 71.85 633.45 74.87 643.18 78.16 652.72 81.6 662 85.32 670.88 89.31 679.22 93.45 686.89 97.84 693.76 102.47 699.77 107.25 704.75 112.25 708.61 117.46 712.25 125.55 712.27 142.7 709.1 151.68 706.21 157.77 702.81 163.96 699.16 170.24 695.77 176.54 692.68 182.91 690.19 189.33 688.77 195.76 688.46 202.22 689.5 208.72 692.16 215.19 696.41 221.69 702.28 228.2 709.77 234.68 718.67 241.17 728.75 247.67 739.74 254.13 751.24 260.6 762.83 267.07 774.07 273.51 784.5 279.96 793.64 286.41 801.17 292.83 806.7 299.26 809.94 305.71 810.93 312.13 809.49 318.58 805.74 325.05 800.12 331.49 792.81 337.97 784.25 344.49 775.26 350.98 766.18 357.52 757.64 364.11 750.44 370.68 744.9 377.3 741.45 383.97 740.55 390.64 742.18 397.36 746.31 404.14 752.86 410.92 761.35 417.75 771.25 424.64 782.05 431.53 792.81 438.4 802.81 445.23 811.65 452.07 818.52 458.87 823.01 465.63 825.03 472.39 824.25 479.1 820.75 485.75 814.86 492.4 806.77 498.98 796.96 505.48 786.04 511.97 774.51 518.36 762.95 524.66 751.99 530.91 742.07 537.06 733.6 543.07 724.67 551.93 720 568.74 723.7 576.62 728.17 581.71 733.54 586.6 739.37 591.24 748.38 597.94 761.86 609.9 764.54 615.13 763.34 619.95 750.17 628.14 738.85 631.57 729.82 633.74 719.96 635.72 709.52 637.51 698.74 639.34 687.88 641.03 677.17 642.63 666.78 644.35 656.9 646.03 647.68 647.73 639.21 649.63 631.56 651.61 624.76 653.72 616.3 657.45 604.44 666.62 600.55 672.24 597.89 678.86 594.01 694.53 592.18 703.55 590.97 710.05 589.5 716.83 587.72 723.82 585.81 731.06 583.52 738.42 580.81 745.82 577.89 753.27 574.54 760.62 570.77 767.77 566.77 774.74 562.37 781.35 557.59 787.51 552.61 793.25 547.3 798.38 541.69 802.82 535.92 806.64 529.91 809.66 523.68 811.83 517.35 813.28 510.86 813.83 504.23 813.49 497.53 812.43 490.74 810.52 483.88 807.81 476.98 804.54 470.04 800.61 463.08 796.09 456.1 791.3 449.11 786.14 442.12 780.73 435.12 775.4 428.13 770.07 421.15 764.86 414.17 760.09 407.28 755.72 400.48 751.84 393.67 748.66 386.93 746.08 380.27 744.15 373.6 743.02 366.98 742.54 360.41 742.69 353.81 743.6 347.25 745.04 340.71 746.97 334.13 749.46 327.56 752.28 320.98 755.3 314.35 758.65 307.7 762.01 301.03 765.3 294.29 768.61 287.53 771.66 280.72 774.35 273.86 776.8 266.96 778.74 260.03 780.12 253.05 781.07 246.06 781.36 239.06 780.97 232.05 780.03 225.07 778.39 218.13 776.04 211.23 773.14 204.42 769.56 197.72 765.35 191.13 760.65 184.7 755.38 178.47 749.61 172.4 743.46 166.57 736.9 161 730 155.65 722.87 150.58 715.49 145.82 707.94 141.27 700.29 137.03 692.55 133.09 684.79 129.32 677.05 125.82 669.36 122.56 661.74 119.38 654.25 116.38 646.89 113.53 639.67 110.64 632.64 107.82 625.78 105.02 619.1 102.08 612.64 99.11 606.35 96.07 600.23 92.83 594.34 89.49 588.6 86.06 583 82.42 577.6 78.71 572.32 74.95 567.14 71.05 562.13 67.17 557.18 63.34 552.29 59.49 547.53 55.78 542.78 52.25 538.04 47.21 531.05 38.7 516.97 35.3 509.81 32.43 502.61 28.13 487.72 26.54 479.99 25.09 472.14 22.54 455.77 21.34 447.24 20.44 441.5 19.57 435.62 18.76 429.6 17.84 423.57 17.01 417.41 16.27 411.11 15.5 404.81 14.87 398.38 14.42 391.82 14.01 385.25 13.82 378.64 13.87 371.99 14.03 365.35 14.45 358.67 15.14 351.96 15.94 345.26 17.01 338.55 18.34 331.82 19.75 325.11 21.37 318.39 23.18 311.68 25 304.98 26.96 298.31 29.01 291.65 30.98 285.03 33 278.43 35.04 271.89 36.93 265.38 38.81 258.92 40.69 252.53 42.41 246.2 44.15 239.94 45.91 233.77 47.59 227.66 49.36 221.66 51.25 215.78 53.16 209.96 55.28 204.28 57.63 198.74 60.11 193.29 62.89 187.98 65.98 182.84 69.27 177.8 72.89 172.92 76.83 168.23 80.97 163.63 85.39 159.22 90.06 155 94.85 150.86 99.83 146.92 104.95 143.17 110.06 139.49 115.24 135.99 120.42 132.67 128.01 127.85 142.52 119.01 149.35 114.93 155.73 110.92 167.68 103.18 173.36 99.37 178.82 95.41 189.83 87.23 195.54 82.96 201.41 78.38 214.1 68.72 220.99 63.66 225.75 60.12 230.72 56.56 235.89 53 241.18 49.34 246.65 45.7 252.3 42.13 258.06 38.51 263.97 35 270.03 31.62 276.18 28.27 282.44 25.1 288.8 22.15 295.23 19.31 301.74 16.73 308.3 14.44 314.91 12.32 321.55 10.53 328.2 9.09 334.89 7.85 341.57 6.98 348.23 6.48 354.91 6.2 361.55 6.28 368.14 6.73 374.73 7.36 381.26 8.32 387.71 9.6" stroke-dasharray="1 8" transform="rotate(0, 400, 400)" opacity="0.05"></path><path d="M381.06 20.39C387.22 21.8 393.27 23.44 399.2 25.29 405.13 27.17 410.94 29.2 416.64 31.33 422.35 33.41 427.95 35.55 433.46 37.73 441.72 40.79 458 46.54 466.13 49.18 471.64 50.72 477.19 52.2 482.81 53.65 488.58 54.9 494.46 56.12 500.51 57.33 506.74 58.38 513.19 59.45 519.87 60.55 526.79 61.55 533.99 62.62 541.48 63.79 549.22 64.91 557.26 66.17 565.6 67.58 574.15 69.01 582.96 70.63 591.97 72.45 601.08 74.35 610.3 76.48 619.55 78.84 628.68 81.32 637.68 84.06 646.42 87.05 654.79 90.18 662.69 93.58 670 97.22 676.65 101.02 682.51 105.07 687.47 109.36 693.11 116.13 697.85 130.92 697.03 138.89 695.52 144.35 693.27 149.98 690.44 155.74 687.49 161.58 684.38 167.53 681.37 173.59 678.91 179.69 677.03 185.87 675.98 192.13 676.14 198.4 677.52 204.73 680.26 211.1 684.55 217.48 690.29 223.89 697.46 230.32 705.96 236.74 715.57 243.18 726.01 249.63 737 256.06 748.16 262.5 759.07 268.95 769.37 275.37 778.61 281.8 786.42 288.24 792.56 294.65 796.69 301.07 798.62 307.5 798.46 313.91 796.08 320.34 791.65 326.78 785.64 333.2 778.21 339.64 769.81 346.11 761.2 352.56 752.68 359.04 744.82 365.55 738.33 372.04 733.48 378.58 730.62 385.14 730.18 391.7 732.08 398.29 736.28 404.92 742.72 411.55 750.93 418.21 760.44 424.91 770.78 431.6 781.09 438.25 790.73 444.85 799.34 451.45 806.16 457.99 810.8 464.46 813.19 470.94 812.98 477.34 810.21 483.67 805.16 489.98 797.97 496.21 789.03 502.34 778.89 508.45 767.96 514.44 756.79 520.32 745.95 526.17 735.85 531.88 726.91 537.44 719.53 542.95 713.89 548.3 710.09 553.48 708.28 561.05 715.26 575.08 722.41 581.49 730.79 587.55 745.37 598.36 749.72 603.11 750.88 607.52 743.31 615.16 734.8 618.47 727.51 620.61 719.17 622.62 710 624.49 700.22 626.44 690.04 628.32 679.69 630.16 669.33 632.14 659.17 634.14 649.38 636.2 640.05 638.49 631.32 640.91 623.26 643.47 615.93 646.35 609.33 649.45 603.45 652.79 596.09 658.51 585.31 672.05 581.42 679.91 579.36 685.65 577.48 691.68 575.67 697.99 574.07 704.6 572.4 711.41 570.59 718.39 568.82 725.53 566.81 732.73 564.51 739.9 562.14 747.06 559.43 754.07 556.38 760.84 553.18 767.37 549.63 773.52 545.72 779.2 541.66 784.45 537.27 789.08 532.57 793.05 525.17 797.7 508.89 802.02 500.14 801.58 494.17 800.36 488.04 798.35 481.77 795.59 475.46 792.34 469.03 788.48 462.51 784.09 455.97 779.46 449.36 774.49 442.67 769.29 435.98 764.18 429.23 759.07 422.43 754.07 415.63 749.48 408.86 745.25 402.12 741.47 395.38 738.34 388.66 735.76 381.97 733.78 375.27 732.54 368.58 731.9 361.91 731.85 355.22 732.52 348.53 733.69 341.83 735.33 335.11 737.52 328.37 740.02 321.61 742.76 314.82 745.83 308.01 748.95 301.17 752.04 294.3 755.2 287.4 758.16 280.48 760.82 273.54 763.31 266.6 765.36 259.65 766.93 252.7 768.13 245.78 768.74 238.9 768.74 232.07 768.26 225.3 767.12 218.64 765.33 212.07 763.02 205.63 760.08 199.36 756.52 193.25 752.48 187.33 747.88 181.65 742.77 176.16 737.28 170.93 731.35 165.98 725.04 161.23 718.46 156.78 711.6 152.61 704.51 148.64 697.28 144.93 689.91 141.49 682.44 138.17 674.95 135.06 667.43 132.13 659.94 129.23 652.51 126.44 645.16 123.73 637.9 120.93 630.78 118.14 623.79 115.33 616.93 112.34 610.25 109.27 603.72 106.11 597.34 102.72 591.15 99.23 585.11 95.64 579.2 91.86 573.47 88.01 567.86 84.13 562.36 80.14 557.02 76.19 551.77 72.33 546.58 68.47 541.52 64.78 536.51 61.29 531.52 56.38 524.19 48.24 509.6 45.09 502.26 42.48 494.93 38.71 479.95 37.38 472.25 36.15 464.47 33.93 448.36 32.82 440.02 31.93 434.42 31.06 428.7 30.21 422.86 29.23 417.01 28.31 411.05 27.46 404.96 26.57 398.87 25.82 392.66 25.23 386.34 24.7 380.02 24.4 373.66 24.36 367.27 24.45 360.88 24.82 354.48 25.49 348.05 26.3 341.63 27.39 335.2 28.76 328.78 30.23 322.36 31.93 315.95 33.82 309.56 35.73 303.19 37.76 296.84 39.89 290.53 41.93 284.24 44.01 278 46.09 271.82 48 265.67 49.89 259.59 51.75 253.58 53.44 247.63 55.11 241.76 56.78 235.99 59.15 227.49 64.33 211.17 67.36 203.41 70.81 195.91 79.48 181.82 84.78 175.26 88.64 171.02 92.81 166.96 97.25 163.08 101.87 159.27 106.71 155.62 111.73 152.16 116.82 148.74 122.01 145.49 127.26 142.39 135.05 137.85 150.24 129.42 157.5 125.47 164.33 121.52 177.09 113.78 183.09 109.92 188.76 105.86 199.81 97.44 205.34 93.03 210.87 88.31 222.51 78.42 228.72 73.26 232.96 69.67 237.38 66.08 241.97 62.5 246.64 58.82 251.49 55.2 256.51 51.64 261.61 48.05 266.88 44.58 272.3 41.26 277.79 37.98 283.42 34.88 289.16 32.01 294.97 29.26 300.88 26.77 306.88 24.56 312.92 22.53 319.02 20.83 325.16 19.46 331.34 18.31 337.55 17.5 343.77 17.07 350.01 16.84 356.24 16.97 362.46 17.45 368.69 18.11 374.89 19.1 381.05 20.39" stroke-dasharray="5 3" transform="rotate(5.294117647058823, 400, 400)" opacity="0.08"></path><path d="M377.74 31.18C383.67 32.6 389.55 34.24 395.37 36.09 401.19 37.97 406.96 39.99 412.68 42.13 418.42 44.21 424.12 46.36 429.81 48.55 435.52 50.61 441.23 52.67 446.96 54.71 452.75 56.58 458.59 58.41 464.49 60.19 470.49 61.77 476.6 63.31 482.83 64.8 489.2 66.1 495.73 67.37 502.45 68.61 509.34 69.7 516.44 70.79 523.76 71.9 531.27 72.89 539.01 73.95 546.99 75.07 555.11 76.14 563.44 77.32 571.95 78.63 580.53 79.94 589.21 81.42 597.94 83.08 606.59 84.79 615.17 86.71 623.58 88.84 639.53 93.42 653.83 98.97 665.62 105.49 674.66 112.56 680.2 120.59 681.97 129.5 681.04 138.92 677.31 149.11 671.89 159.94 667.17 171.1 663.89 182.75 663.78 194.78 665.56 200.85 668.58 206.99 672.9 213.19 678.62 219.41 685.61 225.67 693.78 231.97 702.98 238.27 712.97 244.6 723.46 250.96 734.17 257.3 744.73 263.66 754.76 270.04 763.96 276.4 771.94 282.77 778.38 289.15 783.14 295.51 785.94 301.88 786.66 308.26 785.46 314.62 782.29 320.99 777.31 327.37 771.03 333.73 763.6 340.11 755.44 346.5 747.27 352.88 739.34 359.27 732.16 365.68 726.37 372.08 722.18 378.49 719.89 384.93 719.86 391.36 722 397.8 726.27 404.26 732.58 410.73 740.51 417.2 749.63 423.69 759.52 430.18 769.39 436.6 778.67 442.95 787.03 449.29 793.77 455.56 798.54 461.75 801.25 467.94 801.57 474.03 799.48 480.03 795.24 486.01 788.92 491.89 780.86 497.66 771.52 503.4 761.26 509.02 750.58 514.51 739.97 519.96 729.85 525.26 720.6 530.41 712.63 535.51 706.13 540.45 701.27 545.2 697.56 552.16 700.57 565 706.11 570.86 713.48 576.41 728.13 586.36 733.61 590.77 736.65 594.92 727.92 605.84 708.75 612.04 691.26 616.46 671.89 620.89 652.19 625.57 633.2 631.24 615.98 637.59 601.05 644.84 588.67 653.49 578.68 663.26 570.64 674.15 567.38 680.1 564.42 686.29 561.69 692.7 559.29 699.34 556.99 706.13 554.71 713.01 552.59 720 550.4 726.98 548.06 733.88 545.77 740.71 543.26 747.34 540.52 753.69 537.73 759.78 534.66 765.46 531.3 770.66 525.99 777.49 513.76 787.08 506.89 789.59 499.63 790.38 483.84 787.19 475.4 783.36 469.67 780.14 463.77 776.36 457.72 772.1 451.64 767.63 445.44 762.85 439.1 757.87 432.77 752.97 426.31 748.08 419.75 743.28 413.19 738.86 406.6 734.78 400 731.11 393.4 728.03 386.77 725.46 380.13 723.43 373.49 722.09 366.83 721.31 360.14 721.07 353.45 721.51 346.74 722.43 340 723.78 333.26 725.68 326.49 727.88 319.69 730.33 312.89 733.12 306.06 735.99 299.22 738.87 292.39 741.85 285.54 744.68 278.7 747.28 271.88 749.77 265.08 751.89 258.32 753.58 251.61 754.98 244.97 755.86 238.4 756.2 231.93 756.11 225.58 755.43 219.37 754.14 213.29 752.39 207.4 750.03 201.7 747.08 196.17 743.69 190.88 739.74 185.83 735.28 176.31 725.24 167.84 713.55 160.47 700.62 153.65 686.97 147.63 672.7 142.24 658.17 136.68 643.7 131.2 629.39 125.56 615.43 119.09 601.98 112.18 589.03 104.88 576.58 100.94 570.59 96.97 564.71 92.99 558.94 88.93 553.31 84.94 547.78 81.06 542.32 77.24 536.99 73.61 531.72 70.21 526.5 65.48 518.83 57.84 503.67 54.96 496.11 52.65 488.61 49.43 473.44 48.34 465.71 47.31 457.95 45.37 442.01 44.31 433.81 42.98 425.53 40.08 408.45 38.63 399.66 37.62 393.77 36.75 387.77 36.05 381.68 35.4 375.59 34.99 369.47 34.86 363.34 34.88 357.21 35.2 351.07 35.83 344.93 36.63 338.8 37.73 332.66 39.12 326.54 40.64 320.43 42.4 314.34 44.35 308.28 46.34 302.24 48.45 296.23 50.66 290.27 52.78 284.33 54.93 278.45 57.07 272.64 59.04 266.86 60.97 261.16 62.84 255.54 65.35 247.23 70.01 231.21 72.33 223.54 74.7 216.09 80.41 202 83.97 195.38 86.63 191.08 89.6 186.95 92.9 182.98 100.18 175.2 108.71 168.07 118.25 161.58 128.25 155.2 138.73 149.35 149.37 143.98 159.62 138.47 169.57 133.27 179.13 128.26 187.85 122.84 196.16 117.42 204.19 111.95 209.83 107.46 220.93 98.06 226.52 93.13 232.11 87.94 243.82 77.27 250.02 71.87 256.4 66.39 270.01 55.82 277.23 50.85 282.15 47.65 287.2 44.64 292.39 41.85 300.3 37.99 316.72 31.94 325.18 29.85 333.74 28.4 351.17 27.58 359.99 28.18 365.88 28.87 371.8 29.88 377.73 31.18" stroke-dasharray="3 1" transform="rotate(10.588235294117647, 400, 400)" opacity="0.11"></path><path d="M378.34 41.97C384.1 43.39 389.87 45.04 395.63 46.88 401.41 48.76 407.19 50.77 412.99 52.91 418.81 54.99 424.66 57.14 430.54 59.33 436.47 61.41 442.45 63.49 448.51 65.55 460.8 69.18 473.54 72.65 486.83 75.91 500.55 78.44 514.99 80.86 530.15 83.24 545.7 85.15 561.82 87.29 578.24 89.79 594.42 92.23 610.19 95.3 624.92 99.09 638.13 103.2 649.23 108.2 657.56 114.1 663.29 120.51 665.82 127.84 665.21 136.04 662.85 144.74 658.77 154.22 654.17 164.37 651.28 174.89 650.68 185.95 653.72 197.42 661.64 209.11 674.22 221.1 690.96 233.31 710.6 245.58 731.03 258 749.74 270.49 764.49 282.99 773.05 295.53 774.1 308.09 768.38 320.63 756.57 333.19 741.18 345.74 733.49 352.02 726.17 358.29 719.67 364.57 714.57 370.85 711 377.13 709.24 383.41 709.59 389.69 711.95 395.97 716.25 402.24 722.43 408.52 730.09 414.8 738.82 421.06 748.27 427.33 757.71 433.51 766.62 439.61 774.72 445.7 781.38 451.7 786.24 457.6 789.23 463.5 790.01 469.29 788.57 474.97 785.09 480.63 779.62 486.18 772.42 491.6 754.44 502.38 734.04 512.6 714.6 522.2 699.1 531.65 689.2 540.4 685.49 548.42 688.01 556.25 694.75 563.32 703.52 569.62 716.49 578.56 719.16 593.56 705.27 600.33 690.84 605.3 673.67 610.43 655.15 615.92 636.3 622.41 618.23 629.63 601.69 637.72 587.02 647.11 574.46 657.49 563.86 668.83 555.23 681.24 547.95 694.28 541.51 707.64 536.08 721.18 530.69 734.24 524.96 746.3 519.4 757.23 513.05 766.25 505.79 772.87 498.35 777.32 489.92 778.91 480.54 777.56 475.78 776.07 470.8 773.91 465.6 771.12 460.38 767.94 454.96 764.25 449.35 760.12 443.72 755.81 437.92 751.23 431.96 746.46 425.99 741.77 419.86 737.09 413.59 732.49 407.32 728.25 400.98 724.31 394.58 720.74 388.19 717.72 381.75 715.16 375.25 713.09 368.77 711.67 362.24 710.76 355.67 710.36 349.11 710.58 342.51 711.25 335.87 712.34 322.65 716.03 309.33 720.7 295.99 725.79 282.8 731.44 269.71 736.39 256.87 740.13 244.39 742.94 232.36 743.79 220.97 742.51 210.2 739.57 200.27 734.38 191.32 727.13 183.04 718.37 175.73 707.93 169.36 696.15 163.29 683.53 157.8 670.12 152.68 656.26 147.15 642.27 141.5 628.24 135.54 614.39 128.68 600.88 121.37 587.72 113.7 574.99 105.45 562.76 97.3 550.93 89.58 539.47 82.21 528.45 75.85 517.67 70.73 507.05 66.45 496.74 63.4 486.44 61.46 476.08 59.81 465.88 58.68 455.5 57.81 444.91 56.83 436.96 54.44 420.72 53.02 412.42 51.36 404.04 48.17 386.88 46.86 378.11 46.1 372.23 45.6 366.35 45.38 360.47 45.32 354.59 45.58 348.71 46.17 342.85 46.94 337 48.04 331.16 49.44 325.34 50.99 319.54 52.78 313.76 54.79 308.03 58.89 296.62 63.39 285.41 67.96 274.49 71.85 263.7 75.49 253.25 78.88 243.24 81.6 233.41 84.44 224.07 87.7 215.28 91.16 206.7 95.64 198.7 101.3 191.32 107.84 184.09 115.68 177.44 124.65 171.36 134.26 165.29 144.56 159.68 155.23 154.45 165.75 149.01 176.16 143.79 186.28 138.7 195.69 133.15 204.69 127.57 213.32 121.89 221.22 115.6 228.96 109.15 236.68 102.55 244 95.4 251.57 88.22 259.5 81.12 267.35 73.79 275.71 66.82 284.61 60.4 293.58 54.25 303.1 48.99 313.12 44.81 320.73 42.2 336.51 38.92 344.64 38.27 352.87 38.26 369.73 40.15 378.33 41.97" stroke-dasharray="7 6" transform="rotate(15.882352941176471, 400, 400)" opacity="0.13"></path><path d="M382.76 52.76C394.05 55.69 405.56 59.4 417.29 63.66 429.11 67.76 441.26 72.04 453.8 76.36 466.53 80.06 479.79 83.61 493.59 86.97 507.66 89.61 522.3 92.13 537.39 94.58 552.53 96.53 567.82 98.65 582.9 101.05 597.31 103.32 610.78 106.14 622.72 109.59 632.94 113.27 640.83 117.76 645.99 123.09 648.96 128.86 649.26 135.51 647.21 143 644.39 150.97 640.9 159.72 637.92 169.15 637.38 178.97 639.69 189.37 645.79 200.22 656.39 211.33 670.97 222.79 688.72 234.51 708.18 246.36 727.34 258.38 743.9 270.51 756.07 282.68 762.05 294.93 760.99 307.19 753.98 319.46 741.86 331.75 727.03 344.01 713.37 356.28 703.08 368.53 698.68 380.74 702.03 392.95 712.38 405.11 728.01 417.18 746.25 429.26 762.63 440.94 773.89 452.19 778.48 463.41 774.83 474.16 763.7 484.39 747.32 494.54 728.02 504.12 708.81 513.08 692.54 521.92 680.94 530.1 674.9 537.59 674.82 544.96 679.23 551.66 686.4 557.7 699.05 566.46 708.06 582.02 699.27 589.53 688.2 595.12 673.83 600.97 657.32 607.27 639.6 614.56 621.7 622.56 604.48 631.4 588.37 641.38 573.86 652.23 561.07 663.86 550.01 676.33 540.44 689.22 532 702.21 524.76 715.16 518.01 727.48 511.36 738.66 505.17 748.66 498.6 756.73 491.44 762.47 484.31 766.16 476.39 767.18 467.64 765.46 458.81 761.82 449.14 755.92 438.69 748.16 428.18 739.8 416.94 730.76 405.03 721.7 393.12 713.95 380.87 707.53 368.37 702.78 355.93 700.39 343.27 699.85 330.5 701 317.84 704.12 305.14 708.22 292.52 712.82 280.13 718.09 267.97 722.83 256.19 726.6 244.83 729.66 234.05 731.01 224 730.46 214.55 728.45 205.94 724.36 198.27 718.29 191.11 710.79 184.77 701.6 179.14 691.01 173.58 679.51 168.34 667.08 163.23 654.03 157.52 640.69 151.52 627.14 145.11 613.59 137.8 600.22 130.07 587.06 122.08 574.22 113.67 561.76 105.51 549.65 97.93 537.87 90.85 526.48 84.87 515.35 80.19 504.42 76.38 493.78 73.77 483.22 72.22 472.69 70.89 462.32 69.99 451.86 69.25 441.29 67.85 430.79 66.22 420.09 64.39 409.19 61.88 398.3 59.53 387.18 57.67 375.83 56.07 364.49 55.64 353.2 56.51 342.01 58.19 330.84 61.15 319.81 65.13 308.97 69.35 298.2 74 287.67 78.73 277.46 82.8 267.37 86.57 257.64 90.02 248.36 92.71 239.22 95.38 230.57 98.31 222.46 101.29 214.5 105.14 207.08 110.07 200.22 115.81 193.44 122.86 187.18 131.11 181.4 140.13 175.56 150.02 170.09 160.5 164.92 171.08 159.48 181.76 154.19 192.31 148.97 202.34 143.26 212.02 137.49 221.33 131.6 229.94 125.13 238.26 118.51 246.43 111.77 254.07 104.55 261.78 97.33 269.68 90.25 277.33 83.01 285.36 76.17 293.83 69.91 302.23 63.97 311.14 58.91 320.55 54.93 329.96 51.64 339.88 49.6 350.26 48.89 360.63 48.94 371.47 50.25 382.75 52.76" stroke-dasharray="5 5" transform="rotate(21.176470588235293, 400, 400)" opacity="0.16"></path><path d="M390.22 63.55C401.35 66.47 412.82 70.16 424.63 74.39 436.51 78.48 448.81 82.77 461.54 87.11 474.39 90.88 487.73 94.52 501.48 97.97 515.32 100.73 529.48 103.36 543.76 105.89 557.79 107.91 571.54 110.03 584.63 112.37 596.76 114.53 607.56 117.14 616.57 120.3 626.39 125.63 631.93 140.62 628.92 150.43 626.56 157.67 624.45 165.68 623.66 174.37 625.77 183.45 630.99 193.14 639.88 203.31 652.67 213.77 668.63 224.62 686.73 235.77 705.45 247.08 722.93 258.61 737.14 270.28 746.73 282.04 750.29 293.88 747.39 305.77 739.38 317.68 727.16 329.62 713.04 341.52 700.56 353.44 691.56 365.32 688.2 377.13 692.02 388.95 702.22 400.68 717.2 412.28 734.59 423.88 750.34 435.06 761.5 445.77 766.67 456.46 764.24 466.65 754.71 476.31 739.95 485.92 721.87 494.95 703.16 503.38 686.45 511.74 673.5 519.47 665.39 526.59 662.82 533.66 664.8 540.14 670.03 546.09 677.68 552.11 685.25 557.72 691.14 563.02 694.86 568.63 694.77 574.16 690.63 579.76 682.96 586 671.73 592.58 657.82 599.65 642.06 607.66 625.28 616.36 608.36 625.81 591.76 636.25 576.13 647.41 561.78 659.17 548.76 671.56 537.14 684.16 526.72 696.66 517.51 708.95 509.07 720.46 501.09 730.75 493.76 739.81 486.41 746.96 478.83 751.88 471.44 754.87 463.54 755.35 455.03 753.31 446.52 749.55 437.32 743.72 427.42 736.21 417.47 728.2 406.85 719.57 395.58 710.91 384.31 703.47 372.71 697.22 360.88 692.49 349.1 689.92 337.16 689.06 325.17 689.75 313.32 692.33 301.51 695.88 289.89 699.98 278.56 704.82 267.55 709.31 257.04 713.03 246.95 716.24 237.51 717.98 228.83 718.04 220.64 716.85 213.25 713.75 206.67 708.79 200.39 702.5 194.74 694.54 189.57 685.15 184.21 674.81 178.95 663.44 173.6 651.32 167.52 638.78 161.05 625.87 154.11 612.81 146.35 599.77 138.25 586.81 130.02 574.05 121.55 561.54 113.5 549.31 106.18 537.36 99.48 525.73 93.98 514.35 89.8 503.2 86.48 492.3 84.32 481.53 83.14 470.85 82.09 460.33 81.38 449.81 80.73 439.25 79.35 428.77 77.67 418.18 75.71 407.48 73.07 396.79 70.54 385.96 68.48 375 66.71 364.03 66.11 353.2 66.85 342.52 68.46 331.87 71.38 321.4 75.38 311.18 79.69 301.01 84.47 291.12 89.37 281.59 93.64 272.13 97.59 263.07 101.17 254.45 103.91 245.94 106.5 237.9 109.2 230.37 111.78 222.94 115.06 216 119.28 209.56 124.21 203.15 130.39 197.17 137.8 191.59 146.06 185.9 155.34 180.49 165.39 175.3 175.76 169.8 186.46 164.39 197.24 158.99 207.71 153.11 217.97 147.14 227.93 141.05 237.27 134.41 246.3 127.64 255.09 120.79 263.32 113.52 271.47 106.31 279.66 99.28 287.5 92.15 295.56 85.46 303.94 79.4 312.15 73.67 320.78 68.84 329.88 65.07 338.91 61.97 348.44 60.1 358.5 59.52 368.52 59.67 379.09 61.03 390.21 63.55" stroke-dasharray="10 10" transform="rotate(26.47058823529412, 400, 400)" opacity="0.19"></path><path d="M399.41 74.34C410.4 77.25 421.77 80.91 433.51 85.1 445.29 89.17 457.47 93.46 470.02 97.82 482.62 101.64 495.55 105.36 508.69 108.91 521.75 111.79 534.83 114.53 547.68 117.16 560.06 119.26 571.8 121.43 582.51 123.75 592.16 125.83 600.28 128.29 606.53 131.22 612.71 136.04 614 149.5 611.26 158.34 610.14 164.87 609.99 172.15 611.75 180.11 616.58 188.44 624.51 197.38 635.75 206.84 650.14 216.58 666.84 226.75 684.67 237.27 702.17 247.96 717.65 258.92 729.39 270.06 736.47 281.3 737.83 292.66 733.35 304.08 724.61 315.56 712.51 327.06 699.21 338.53 687.93 350.04 680.19 361.5 677.79 372.87 682.03 384.25 692.05 395.53 706.38 406.65 722.94 417.77 738.06 428.45 749.08 438.66 754.74 448.85 753.42 458.54 745.42 467.71 732.3 476.84 715.55 485.43 697.57 493.45 680.74 501.43 666.78 508.86 656.92 515.75 652.02 522.65 651.57 529.07 654.64 535.07 660.68 541.21 667.53 547.06 673.71 552.74 678.72 558.78 680.79 564.86 679.42 571.09 674.94 577.97 666.94 585.25 655.97 593.02 642.78 601.66 627.91 610.92 612.16 620.85 596.04 631.61 580.2 642.92 565.1 654.66 550.82 666.83 537.65 679.03 525.59 690.94 514.56 702.5 504.44 713.17 494.99 722.55 486.24 730.68 477.8 736.95 469.42 741.08 461.35 743.41 453.08 743.42 444.45 741.11 435.89 737.26 426.85 731.53 417.29 724.28 407.71 716.61 397.58 708.38 386.91 700.12 376.25 692.98 365.34 686.91 354.27 682.21 343.27 679.49 332.19 678.33 321.15 678.6 310.27 680.66 299.54 683.67 289.1 687.26 278.93 691.66 269.19 695.85 260 699.44 251.19 702.72 243.02 704.74 235.58 705.3 228.49 704.81 222.07 702.58 216.31 698.64 210.62 693.47 205.33 686.7 200.29 678.5 194.86 669.35 189.33 659.09 183.54 647.99 176.96 636.37 169.93 624.25 162.47 611.83 154.3 599.3 145.91 586.72 137.55 574.21 129.16 561.85 121.34 549.66 114.39 537.7 108.19 525.98 103.22 514.48 99.59 503.21 96.78 492.15 95.06 481.24 94.22 470.48 93.42 459.85 92.85 449.29 92.25 438.76 90.85 428.3 89.09 417.82 87.01 407.31 84.22 396.82 81.53 386.26 79.29 375.65 77.36 365.04 76.6 354.63 77.2 344.44 78.71 334.26 81.56 324.32 85.54 314.67 89.91 305.05 94.8 295.76 99.85 286.83 104.34 277.96 108.51 269.49 112.27 261.45 115.14 253.49 117.75 245.97 120.32 238.92 122.6 231.92 125.41 225.36 128.98 219.25 133.12 213.09 138.42 207.3 144.91 201.84 152.27 196.2 160.75 190.78 170.14 185.51 180.05 179.91 190.49 174.33 201.23 168.74 211.9 162.67 222.52 156.5 232.98 150.21 242.98 143.43 252.7 136.54 262.17 129.61 271.1 122.33 279.88 115.15 288.58 108.2 296.88 101.22 305.28 94.72 313.85 88.86 322.2 83.36 330.86 78.76 339.91 75.21 348.84 72.33 358.24 70.62 368.14 70.17 377.99 70.41 388.4 71.82 399.4 74.34" stroke-dasharray="5 7" transform="rotate(31.764705882352942, 400, 400)" opacity="0.22"></path><path d="M408.69 85.13C419.54 88.02 430.72 91.64 442.18 95.79 453.67 99.84 465.45 104.11 477.44 108.47 489.41 112.35 501.5 116.13 513.55 119.77 525.39 122.78 536.95 125.63 547.97 128.38 558.4 130.58 567.92 132.81 576.21 135.15 586.34 138.38 596.72 146.69 597.23 152.25 596.36 158.8 596.89 175.91 602.39 186.43 609.79 194.01 620.04 202.19 633.07 210.91 648.45 219.91 665.24 229.36 682.23 239.18 698.1 249.21 711.37 259.52 720.62 270.04 725.32 280.7 724.72 291.5 718.97 302.39 709.75 313.35 697.95 324.35 685.58 335.34 675.5 346.37 668.97 357.36 667.46 368.26 672.05 379.17 681.87 389.98 695.57 400.62 711.32 411.26 725.8 421.47 736.63 431.22 742.7 440.95 742.39 450.2 735.85 458.96 724.33 467.69 709.01 475.93 691.95 483.66 675.3 491.38 660.68 498.62 649.39 505.41 642.44 512.26 639.65 518.74 640.46 524.9 644.56 531.26 650.19 537.45 655.99 543.57 661.56 550.08 665.09 556.72 665.91 563.58 664.21 571.07 659.25 578.96 651.31 587.34 641.02 596.49 628.61 606.19 614.75 616.44 599.97 627.35 584.82 638.68 569.82 650.25 555.12 662.07 541.12 673.75 527.97 685 515.58 695.77 504.05 705.57 493.26 714.04 483.13 721.27 473.49 726.7 464.16 730.09 455.2 731.83 446.28 731.41 437.28 728.86 428.41 724.95 419.3 719.35 409.87 712.36 400.46 705.04 390.69 697.21 380.55 689.33 370.41 682.49 360.18 676.61 349.91 671.94 339.7 669.1 329.54 667.67 319.54 667.56 309.67 669.12 300.06 671.61 290.83 674.69 281.82 678.63 273.3 682.47 265.34 685.87 257.66 689.13 250.58 691.34 244.13 692.29 237.85 692.38 232.1 690.91 226.8 687.88 221.36 683.75 216.11 678.09 210.9 671.04 205.14 663.06 199.14 653.95 192.78 643.92 185.63 633.31 178.06 622.08 170.11 610.44 161.63 598.58 153.08 586.54 144.74 574.45 136.57 562.41 129.12 550.45 122.66 538.64 117.03 526.98 112.66 515.51 109.6 504.23 107.29 493.12 105.99 482.18 105.46 471.4 104.85 460.74 104.38 450.18 103.78 439.71 102.34 429.31 100.48 418.95 98.26 408.62 95.34 398.32 92.5 388.02 90.11 377.75 88.02 367.47 87.11 357.45 87.56 347.7 88.94 337.96 91.7 328.5 95.63 319.37 100.01 310.26 104.98 301.48 110.17 293.09 114.86 284.73 119.27 276.77 123.26 269.22 126.34 261.71 129.07 254.62 131.61 247.96 133.72 241.29 136.16 235.01 139.19 229.11 142.6 223.12 147.04 217.43 152.6 212 158.98 206.35 166.51 200.85 175.04 195.47 184.24 189.71 194.15 183.96 204.55 178.16 215.11 171.9 225.83 165.54 236.53 159.08 246.98 152.18 257.25 145.2 267.31 138.23 276.94 130.98 286.38 123.87 295.68 117.04 304.6 110.23 313.5 103.94 322.48 98.3 331.2 93.05 340.12 88.7 349.32 85.37 358.38 82.69 367.82 81.16 377.69 80.83 387.51 81.16 397.83 82.61 408.68 85.12" stroke-dasharray="6 3" transform="rotate(37.05882352941176, 400, 400)" opacity="0.25"></path><path d="M416.44 95.92C427.1 98.79 437.94 102.36 448.94 106.45 459.94 110.47 471.05 114.72 482.18 119.08 493.22 122.99 504.15 126.84 514.79 130.56 525.14 133.68 534.95 136.66 544 139.52 552.44 141.84 559.82 144.16 565.93 146.54 576.32 153.67 579.98 168.53 581.14 175.67 583.98 180.92 588.63 186.83 595.56 193.37 605.2 200.22 617.27 207.66 631.47 215.63 647.18 223.88 663.46 232.59 679.13 241.69 693.07 250.99 703.99 260.62 710.8 270.48 713.32 280.49 711.03 290.67 704.29 300.97 694.85 311.35 683.52 321.8 672.15 332.26 663.28 342.76 657.89 353.24 657.2 363.64 662.09 374.06 671.69 384.38 684.76 394.55 699.71 404.72 713.55 414.48 724.15 423.81 730.55 433.12 731.16 441.99 725.97 450.42 716.03 458.83 702.2 466.8 686.22 474.34 670.03 481.9 655.09 489.06 642.73 495.86 634.02 502.76 629.07 509.38 627.62 515.8 629.6 522.44 633.59 529.02 638.47 535.6 643.9 542.6 648.17 549.77 650.5 557.21 651 565.24 648.7 573.66 643.62 582.53 636.29 592.05 626.63 602.04 615.16 612.46 602.38 623.38 588.69 634.57 574.61 645.84 560.34 657.2 546.31 668.27 532.77 678.78 519.66 688.74 507.22 697.65 495.46 705.22 484.22 711.58 473.54 716.21 463.32 718.91 453.44 720.1 443.82 719.31 434.34 716.58 425.02 712.64 415.68 707.17 406.25 700.46 396.86 693.48 387.32 686.04 377.62 678.54 367.91 672 358.28 666.3 348.78 661.7 339.31 658.75 330.03 657.07 321.01 656.6 312.1 657.71 303.53 659.69 295.39 662.27 287.41 665.73 279.92 669.2 272.97 672.36 266.16 675.52 259.87 677.81 254.08 679.04 248.28 679.59 242.83 678.77 237.64 676.54 232.13 673.34 226.62 668.71 221 662.76 214.73 655.92 208.13 647.94 201.14 639 193.43 629.46 185.36 619.21 177.05 608.44 168.39 597.38 159.86 586.02 151.7 574.51 143.89 562.95 136.94 551.37 131.08 539.86 126.08 528.43 122.34 517.12 119.86 505.98 118.05 494.95 117.12 484.08 116.84 473.37 116.39 462.76 115.96 452.27 115.33 441.91 113.8 431.61 111.83 421.4 109.48 411.27 106.43 401.17 103.46 391.13 100.92 381.17 98.7 371.21 97.64 361.55 97.93 352.2 99.17 342.86 101.81 333.84 105.64 325.16 110 316.48 115.01 308.17 120.31 300.23 125.2 292.3 129.86 284.76 134.11 277.61 137.45 270.46 140.38 263.7 143 257.32 145.06 250.89 147.27 244.8 149.88 239.02 152.68 233.11 156.34 227.44 160.98 221.98 166.36 216.26 172.86 210.64 180.4 205.09 188.68 199.17 197.8 193.22 207.58 187.22 217.72 180.78 228.2 174.26 238.85 167.65 249.46 160.66 260.03 153.64 270.47 146.66 280.64 139.47 290.64 132.47 300.49 125.8 310.03 119.19 319.49 113.12 328.92 107.74 338.12 102.75 347.42 98.65 356.88 95.55 366.2 93.08 375.79 91.72 385.69 91.5 395.54 91.92 405.78 93.41 416.43 95.91" stroke-dasharray="6 1" transform="rotate(42.35294117647059, 400, 400)" opacity="0.27"></path><path d="M421.3 106.71C431.67 109.55 442.06 113.07 452.43 117.1 462.77 121.07 473.03 125.29 483.09 129.63 493.03 133.57 502.63 137.47 511.74 141.26 520.52 144.49 528.6 147.59 535.8 150.58 545.25 154.24 557.59 161.15 560.53 164.83 562.35 168.65 565.72 178.63 569.88 185.06 574.98 189.76 581.97 195.06 591.1 200.95 602.48 207.11 615.76 213.84 630.47 221.08 645.9 228.58 661.16 236.55 675.12 244.91 686.92 253.48 695.48 262.39 699.97 271.57 700.55 280.88 696.85 290.41 689.41 300.08 679.97 309.84 669.27 319.7 658.94 329.59 651.26 339.53 646.95 349.47 647.01 359.36 652.14 369.27 661.5 379.1 673.95 388.81 688.11 398.51 701.31 407.85 711.66 416.8 718.3 425.74 719.73 434.3 715.81 442.46 707.39 450.62 695.07 458.41 680.31 465.84 664.81 473.31 649.87 480.47 636.8 487.36 626.68 494.38 619.82 501.22 616.23 507.93 616.01 514.89 618.1 521.86 621.61 528.91 626.31 536.36 630.62 544.02 633.76 551.96 635.79 560.42 635.58 569.26 632.97 578.48 628.41 588.24 621.51 598.37 612.65 608.8 602.3 619.59 590.64 630.49 578.14 641.34 565.06 652.14 551.77 662.53 538.58 672.26 525.47 681.37 512.76 689.39 500.56 696.08 488.68 701.61 477.32 705.48 466.44 707.55 455.86 708.26 445.64 707.14 435.71 704.26 425.94 700.32 416.33 695.01 406.84 688.57 397.4 681.94 388 674.88 378.63 667.75 369.26 661.51 360.14 656 351.28 651.46 342.44 648.43 333.91 646.54 325.74 645.75 317.61 646.42 309.9 647.91 302.63 650.01 295.43 652.99 288.69 656.06 282.43 658.94 273.24 663.08 256.39 666.38 248.24 664.68 242.39 662.3 236.4 658.6 230.18 653.66 223.3 647.91 216.07 641.03 208.48 633.18 200.29 624.72 191.86 615.49 183.35 605.68 174.7 595.51 166.34 584.95 158.54 574.13 151.25 563.19 144.91 552.14 139.72 541.08 135.41 530.03 132.32 519.03 130.39 508.15 129.04 497.34 128.44 486.65 128.36 476.11 128 465.64 127.57 455.3 126.86 445.11 125.23 434.97 123.14 424.94 120.65 415.03 117.49 405.15 114.4 395.37 111.73 385.71 109.39 376.05 108.19 366.72 108.32 357.74 109.41 348.76 111.89 340.11 115.59 331.82 119.89 323.53 124.89 315.59 130.27 308.03 135.34 300.45 140.23 293.24 144.75 286.4 148.4 279.53 151.59 273 154.41 266.81 156.54 260.53 158.66 254.54 160.99 248.81 163.31 242.91 166.31 237.2 170.14 231.64 174.55 225.81 180 220.04 186.48 214.3 193.69 208.21 201.83 202.07 210.74 195.88 220.16 189.29 230.09 182.63 240.36 175.92 250.78 168.88 261.32 161.85 271.86 154.92 282.29 147.83 292.64 140.98 302.86 134.48 312.87 128.11 322.78 122.3 332.62 117.17 342.27 112.46 351.93 108.61 361.64 105.75 371.24 103.49 380.99 102.29 390.91 102.19 400.79 102.69 410.91 104.21 421.29 106.7" stroke-dasharray="5 6" transform="rotate(47.64705882352941, 400, 400)" opacity="0.30"></path><path d="M422.39 117.5C432.39 120.31 442.23 123.77 451.85 127.72 461.44 131.64 470.75 135.81 479.68 140.13 488.47 144.08 496.75 148.02 504.4 151.88 511.76 155.21 518.33 158.43 524.01 161.53 536.25 168.97 546.4 179.86 549.16 184.24 552.19 187.3 556.18 190.85 561.54 194.91 568.78 199.11 577.79 203.88 588.63 209.18 601.19 214.7 615.04 220.76 629.62 227.31 644.23 234.09 658.01 241.33 670 248.98 679.56 256.81 685.8 265 688.18 273.48 687.07 282.09 682.27 290.94 674.4 299.96 665.17 309.07 655.2 318.31 645.97 327.62 639.44 336.97 636.15 346.36 636.88 355.73 642.21 365.12 651.3 374.47 663.14 383.73 676.54 392.99 689.1 401.93 699.14 410.54 705.97 419.15 708.11 427.43 705.35 435.39 698.4 443.36 687.59 451.03 674.15 458.41 659.54 465.86 644.91 473.08 631.47 480.11 620.3 487.29 611.85 494.36 606.31 501.39 603.93 508.67 603.99 516.01 605.82 523.48 609.28 531.32 613.03 539.39 616.29 547.73 619.13 556.52 620.36 565.63 619.68 575.07 617.46 584.92 613.12 595.04 606.82 605.33 599.04 615.85 589.72 626.36 579.26 636.68 567.95 646.83 556.05 656.48 543.87 665.39 531.47 673.63 519.16 680.78 507.1 686.62 495.17 691.36 483.6 694.53 472.46 696.03 461.51 696.3 450.94 694.9 440.74 691.9 430.66 688 420.86 682.85 411.32 676.71 401.83 670.41 392.53 663.72 383.41 656.96 374.29 651.01 365.56 645.7 357.2 641.24 348.84 638.15 340.88 636.07 333.33 634.98 325.78 635.25 318.65 636.29 311.95 637.91 305.24 640.42 298.93 643.07 292.99 645.62 286.94 648.39 281.17 650.61 275.61 652.11 269.74 653.24 263.92 653.35 258.04 652.35 251.66 650.68 245.05 647.81 238.16 643.78 230.67 639.03 222.86 633.19 214.77 626.4 206.25 619.01 197.65 610.83 189.13 602 180.68 592.79 172.7 583.1 165.42 573.09 158.76 562.89 153.14 552.49 148.68 542 145.08 531.46 142.61 520.9 141.22 510.4 140.26 499.93 139.94 489.54 139.99 479.27 139.67 469.05 139.2 458.95 138.38 448.99 136.63 439.06 134.39 429.27 131.77 419.61 128.51 409.98 125.32 400.46 122.54 391.1 120.09 381.73 118.76 372.72 118.73 364.07 119.65 355.4 121.95 347.09 125.5 339.13 129.69 331.16 134.64 323.53 140.05 316.26 145.25 308.97 150.35 302.01 155.15 295.39 159.14 288.71 162.65 282.33 165.73 276.24 168.06 270.04 170.22 264.08 172.43 258.33 174.45 252.39 176.94 246.58 180.08 240.89 183.63 234.92 188.09 228.99 193.5 223.06 199.59 216.79 206.62 210.48 214.49 204.13 222.94 197.42 232.03 190.66 241.61 183.89 251.5 176.84 261.66 169.86 271.96 163.01 282.32 156.06 292.69 149.4 303 143.12 313.24 137.01 323.39 131.46 333.45 126.61 343.39 122.18 353.29 118.6 363.15 115.97 372.95 113.92 382.76 112.89 392.62 112.9 402.46 113.47 412.38 115.02 422.38 117.49" stroke-dasharray="9 3" transform="rotate(52.94117647058824, 400, 400)" opacity="0.33"></path><path d="M419.54 128.28C429.08 131.05 438.29 134.45 447.14 138.32 455.95 142.18 464.32 146.3 472.19 150.57 479.93 154.53 487.06 158.49 493.5 162.4 502.45 167.49 516.05 176.43 520.8 180.42 524.96 183.88 532.71 191.16 537.85 195.33 542.72 198.18 548.72 201.44 556.11 205.15 565.16 208.94 575.73 213.23 587.69 218.01 600.79 222.96 614.58 228.41 628.46 234.33 641.77 240.43 653.76 246.99 663.61 253.95 670.92 261.07 674.99 268.55 675.49 276.34 672.99 284.25 667.38 292.42 659.34 300.8 650.49 309.25 641.37 317.86 633.25 326.58 627.83 335.35 625.48 344.18 626.81 353.04 632.28 361.91 641.09 370.78 652.32 379.61 664.98 388.45 676.9 397.03 686.62 405.34 693.56 413.65 696.31 421.7 694.61 429.49 689.04 437.31 679.73 444.9 667.67 452.29 654.13 459.75 640.06 467.06 626.59 474.25 614.74 481.6 605.04 488.91 597.82 496.23 593.45 503.8 591.48 511.47 591.45 519.28 593.32 527.43 595.99 535.8 598.78 544.42 601.73 553.41 603.71 562.66 604.31 572.15 603.87 581.95 601.63 591.91 597.62 601.94 592.29 612.06 585.38 622.06 577.14 631.76 567.96 641.2 557.89 650.06 547.22 658.13 536.13 665.52 524.8 671.82 513.47 676.84 502.05 680.84 490.82 683.37 479.86 684.35 468.97 684.23 458.4 682.6 448.18 679.53 438.04 675.68 428.21 670.72 418.7 664.86 409.23 658.9 400.03 652.57 391.11 646.17 382.19 640.5 373.73 635.39 365.72 631.03 357.68 627.9 350.08 625.66 342.9 624.31 335.67 624.2 328.85 624.82 322.41 625.99 315.88 628.02 309.66 630.24 303.72 632.45 297.57 634.94 291.57 637.03 285.66 638.52 279.37 639.79 273.02 640.2 266.53 639.65 259.53 638.55 252.28 636.39 244.76 633.17 236.74 629.32 228.49 624.45 220.08 618.66 211.44 612.3 202.87 605.15 194.58 597.32 186.53 589.09 179.09 580.33 172.48 571.18 166.57 561.8 161.72 552.15 158.03 542.33 155.11 532.42 153.25 522.43 152.33 512.42 151.71 502.4 151.59 492.42 151.72 482.52 151.38 472.64 150.82 462.85 149.86 453.19 147.97 443.56 145.6 434.04 142.85 424.67 139.5 415.32 136.22 406.09 133.35 397.02 130.81 387.95 129.35 379.23 129.16 370.87 129.9 362.49 132.01 354.46 135.36 346.78 139.4 339.07 144.26 331.7 149.65 324.66 154.94 317.57 160.22 310.79 165.28 304.31 169.6 297.76 173.46 291.46 176.87 285.41 179.49 279.23 181.83 273.24 184.07 267.42 185.96 261.39 188.12 255.47 190.74 249.63 193.58 243.51 197.18 237.41 201.6 231.31 206.59 224.89 212.48 218.44 219.21 211.95 226.52 205.16 234.57 198.35 243.2 191.57 252.25 184.57 261.71 177.67 271.44 170.95 281.36 164.19 291.41 157.74 301.5 151.72 311.62 145.88 321.72 140.63 331.74 136.07 341.74 131.93 351.66 128.62 361.49 126.22 371.29 124.38 381.03 123.5 390.7 123.62 400.37 124.26 409.99 125.83 419.53 128.28" stroke-dasharray="6 1" transform="rotate(58.235294117647065, 400, 400)" opacity="0.36"></path><path d="M413.24 139.07C422.25 141.79 430.83 145.11 438.94 148.91 447.01 152.69 454.56 156.74 461.54 160.96 468.43 164.91 474.69 168.88 480.29 172.82 488.17 178.04 500.62 187.35 505.56 191.52 510.59 195.14 522.02 202.5 529.78 206.55 536.44 209.25 544.25 212.3 553.32 215.72 563.7 219.18 575.24 223.08 587.7 227.42 600.72 231.87 613.86 236.78 626.54 242.13 638.21 247.62 648.19 253.54 655.85 259.86 661.01 266.31 663.11 273.12 662 280.25 658.41 287.49 652.28 295 644.3 302.74 636 310.55 627.79 318.55 620.78 326.69 616.42 334.86 614.94 343.15 616.8 351.5 622.36 359.87 630.87 368.29 641.51 376.71 653.43 385.14 664.72 393.38 674.1 401.41 681.07 409.45 684.34 417.3 683.6 424.97 679.31 432.66 671.45 440.2 660.82 447.6 648.48 455.09 635.21 462.49 622.01 469.84 609.84 477.34 599.26 484.85 590.69 492.42 584.57 500.21 580.67 508.13 578.74 516.2 578.82 524.56 580.05 533.11 581.85 541.87 584.31 550.93 586.36 560.18 587.58 569.58 588.25 579.19 587.54 588.86 585.36 598.49 582.14 608.11 577.43 617.5 571.37 626.52 564.39 635.2 556.36 643.25 547.51 650.47 538.11 657.01 528.22 662.49 518.06 666.74 507.67 670.05 497.24 671.99 486.89 672.51 476.51 672.06 466.31 670.25 456.37 667.14 446.46 663.37 436.82 658.6 427.48 653.03 418.16 647.4 409.13 641.43 400.39 635.39 391.64 630 383.37 625.09 375.55 620.83 367.7 617.67 360.26 615.31 353.22 613.73 346.11 613.28 339.34 613.5 332.87 614.24 326.26 615.81 319.87 617.6 313.64 619.44 307.16 621.62 300.73 623.51 294.28 624.93 287.45 626.24 280.49 626.84 273.35 626.62 265.76 625.98 257.96 624.41 249.93 621.89 241.56 618.83 233.08 614.83 224.58 609.96 216.05 604.58 207.76 598.4 199.9 591.55 192.45 584.31 185.71 576.5 179.89 568.25 174.79 559.74 170.75 550.91 167.81 541.84 165.56 532.64 164.24 523.3 163.72 513.88 163.37 504.42 163.38 494.94 163.51 485.49 163.11 476.04 162.41 466.65 161.29 457.36 159.25 448.08 156.75 438.9 153.88 429.85 150.45 420.81 147.11 411.89 144.17 403.11 141.54 394.34 139.97 385.91 139.61 377.81 140.17 369.71 142.07 361.93 145.19 354.48 149.05 346.99 153.77 339.82 159.08 332.94 164.41 326.01 169.82 319.35 175.09 312.96 179.73 306.47 183.96 300.2 187.74 294.14 190.72 287.93 193.36 281.88 195.77 275.96 197.7 269.83 199.73 263.78 202.03 257.78 204.35 251.52 207.26 245.27 210.83 239.02 214.82 232.49 219.62 225.93 225.21 219.36 231.34 212.54 238.22 205.73 245.74 198.98 253.72 192.08 262.21 185.32 271.09 178.77 280.25 172.23 289.65 166.04 299.19 160.29 308.86 154.76 318.58 149.82 328.27 145.56 338.01 141.71 347.69 138.67 357.27 136.51 366.86 134.86 376.34 134.14 385.67 134.36 395.02 135.06 404.22 136.65 413.23 139.07" stroke-dasharray="7 3" transform="rotate(63.529411764705884, 400, 400)" opacity="0.39"></path><path d="M404.6 149.86C413.05 152.53 421.02 155.77 428.49 159.47 435.93 163.16 442.84 167.14 449.2 171.3 455.5 175.22 461.24 179.19 466.41 183.14 473.87 188.47 486.68 198.11 492.57 202.47 496.84 205 501.27 207.55 506.05 210.18 511.62 212.55 517.88 215.08 525 217.82 533.2 220.43 542.41 223.33 552.65 226.55 563.79 229.75 575.68 233.34 588 237.31 600.38 241.34 612.39 245.79 623.49 250.64 633.28 255.6 641.17 260.95 646.68 266.69 649.86 272.53 650.24 278.72 647.84 285.24 643.46 291.84 637.08 298.73 629.37 305.86 621.73 313.06 614.5 320.47 608.57 328.05 605.22 335.66 604.53 343.42 606.84 351.3 612.45 359.18 620.65 367.15 630.7 375.19 641.91 383.24 652.57 391.16 661.57 398.94 668.52 406.72 672.21 414.39 672.32 421.94 669.21 429.52 662.75 437.01 653.54 444.43 642.5 451.93 630.21 459.4 617.56 466.87 605.41 474.48 594.32 482.14 584.76 489.89 577.2 497.82 571.6 505.89 567.85 514.11 566.08 522.55 565.65 531.16 566.12 539.93 567.58 548.91 569.12 558.01 570.32 567.19 571.43 576.48 571.61 585.73 570.68 594.86 569.05 603.89 566.13 612.61 561.99 620.88 557.04 628.77 551 636 544.04 642.39 536.5 648.11 528.28 652.8 519.59 656.34 510.58 659.01 501.31 660.42 491.92 660.54 482.42 659.81 472.93 657.85 463.56 654.73 454.17 651.06 444.94 646.5 435.92 641.22 426.92 635.92 418.13 630.3 409.59 624.6 401.04 619.49 392.92 614.79 385.19 610.64 377.42 607.48 370.01 605.01 362.93 603.23 355.75 602.48 348.84 602.33 342.14 602.67 335.27 603.8 328.53 605.17 321.86 606.62 314.93 608.47 307.98 610.11 300.94 611.39 293.57 612.67 286.04 613.36 278.34 613.36 270.3 613.07 262.11 611.96 253.8 610.02 245.32 607.64 236.85 604.41 228.54 600.36 220.36 595.86 212.58 590.61 205.36 584.69 198.65 578.4 192.74 571.53 187.77 564.18 183.53 556.57 180.29 548.59 178.07 540.31 176.41 531.89 175.56 523.26 175.36 514.5 175.19 505.67 175.26 496.77 175.34 487.85 174.83 478.92 173.97 469.99 172.67 461.13 170.47 452.26 167.83 443.47 164.86 434.77 161.37 426.08 157.98 417.49 154.98 409.02 152.29 400.56 150.61 392.4 150.1 384.56 150.47 376.71 152.13 369.16 155.02 361.89 158.65 354.6 163.18 347.58 168.36 340.83 173.66 334.01 179.15 327.43 184.59 321.07 189.5 314.62 194.08 308.35 198.25 302.24 201.64 295.99 204.65 289.86 207.35 283.82 209.48 277.59 211.56 271.42 213.74 265.28 215.77 258.91 218.19 252.54 221.12 246.17 224.29 239.57 228.14 232.95 232.68 226.35 237.66 219.56 243.37 212.8 249.72 206.15 256.52 199.39 263.88 192.82 271.7 186.48 279.84 180.21 288.33 174.31 297.05 168.86 305.96 163.65 315.01 159.03 324.1 155.08 333.29 151.53 342.47 148.76 351.56 146.82 360.7 145.38 369.72 144.8 378.58 145.11 387.46 145.88 396.15 147.47 404.59 149.86" stroke-dasharray="3 2" transform="rotate(68.8235294117647, 400, 400)" opacity="0.41"></path><path d="M395.15 160.65C403.04 163.26 410.47 166.41 417.44 170 424.39 173.61 430.87 177.5 436.88 181.58 442.87 185.46 448.42 189.41 453.55 193.37 458.74 196.98 463.61 200.55 468.25 204.06 473.11 207.18 477.91 210.24 482.8 213.26 488.18 215.92 493.89 218.59 500.1 221.31 507.06 223.77 514.72 226.34 523.19 229.08 532.5 231.65 542.61 234.47 553.41 237.55 564.73 240.57 576.36 243.92 587.97 247.6 599.23 251.3 609.73 255.37 619 259.8 629.71 266.73 637.03 282.51 633.12 291.29 628.24 297.31 621.85 303.62 614.59 310.2 607.73 316.82 601.49 323.68 596.63 330.74 594.21 337.82 594.23 345.08 596.93 352.49 602.55 359.92 610.41 367.47 619.89 375.15 630.4 382.83 640.44 390.44 649.04 397.98 655.92 405.52 659.94 413.01 660.78 420.44 658.75 427.9 653.61 435.33 645.81 442.74 636.11 450.22 624.95 457.72 613.08 465.26 601.27 472.92 590.03 480.65 579.86 488.48 571.22 496.47 564.2 504.58 558.82 512.81 555.28 521.22 553.12 529.75 552.05 538.39 552.17 547.16 552.73 555.99 553.37 564.82 554.29 573.67 554.72 582.41 554.42 590.94 553.77 599.31 552.12 607.3 549.44 614.79 546.17 621.88 541.87 628.29 536.64 633.86 530.89 638.8 524.37 642.76 517.24 645.63 509.76 647.72 501.85 648.67 493.65 648.44 485.27 647.47 476.74 645.41 468.16 642.31 459.52 638.76 450.91 634.41 442.37 629.43 433.83 624.45 425.4 619.18 417.1 613.81 408.8 608.97 400.81 604.48 393.13 600.46 385.41 597.32 377.96 594.77 370.73 592.82 363.41 591.8 356.26 591.31 349.23 591.28 342.04 591.99 334.89 592.94 327.74 594.01 320.37 595.5 312.93 596.86 305.37 597.95 297.57 599.12 289.63 599.82 281.57 599.95 273.31 599.89 264.98 599.14 256.66 597.66 248.33 595.84 240.16 593.25 232.28 589.92 224.69 586.21 217.61 581.8 211.2 576.73 205.35 571.34 200.34 565.36 196.27 558.89 192.87 552.17 190.39 545.05 188.81 537.59 187.68 529.97 187.2 522.1 187.22 514.04 187.16 505.91 187.21 497.64 187.18 489.31 186.51 480.94 185.47 472.54 183.97 464.15 181.62 455.75 178.85 447.39 175.79 439.08 172.25 430.78 168.83 422.54 165.79 414.4 163.05 406.25 161.28 398.38 160.62 390.79 160.79 383.18 162.22 375.83 164.84 368.74 168.21 361.62 172.51 354.73 177.51 348.07 182.72 341.35 188.21 334.82 193.75 328.48 198.89 322.04 203.78 315.74 208.32 309.58 212.14 303.28 215.58 297.07 218.66 290.93 221.12 284.62 223.41 278.34 225.66 272.1 227.62 265.65 229.79 259.21 232.3 252.78 234.87 246.15 237.98 239.54 241.65 232.97 245.63 226.25 250.25 219.61 255.48 213.1 261.09 206.55 267.27 200.2 273.95 194.13 280.95 188.15 288.36 182.56 296.07 177.43 304.01 172.56 312.16 168.27 320.43 164.64 328.83 161.39 337.28 158.89 345.69 157.17 354.18 155.92 362.59 155.49 370.85 155.89 379.15 156.71 387.26 158.3 395.14 160.65" stroke-dasharray="3 5" transform="rotate(74.11764705882352, 400, 400)" opacity="0.44"></path><path d="M386.56 171.44C393.91 173.98 400.9 177.04 407.52 180.52 414.13 184.03 420.38 187.82 426.28 191.81 432.21 195.63 437.85 199.54 443.24 203.48 448.76 207.12 454.14 210.74 459.48 214.32 465.1 217.53 470.85 220.71 476.84 223.85 483.31 226.64 490.21 229.44 497.65 232.27 505.71 234.82 514.41 237.47 523.74 240.24 533.64 242.84 544.05 245.62 554.83 248.62 565.73 251.52 576.57 254.7 587.01 258.17 596.79 261.62 605.53 265.39 612.85 269.49 620.61 275.84 623.14 290.27 618 298.32 612.9 303.82 606.72 309.62 600.06 315.7 594.04 321.8 588.8 328.15 584.96 334.72 583.4 341.31 584.05 348.11 587.06 355.1 592.64 362.09 600.17 369.26 609.08 376.58 618.91 383.91 628.33 391.23 636.52 398.53 643.27 405.83 647.53 413.13 649 420.42 647.94 427.74 644.02 435.08 637.57 442.43 629.24 449.86 619.31 457.33 608.41 464.86 597.21 472.49 586.16 480.21 575.74 488.01 566.41 495.94 558.32 503.98 551.61 512.11 546.48 520.36 542.68 528.69 540.01 537.06 538.61 545.51 537.88 553.94 537.54 562.3 537.77 570.62 537.88 578.76 537.62 586.62 537.33 594.27 536.35 601.51 534.6 608.21 532.49 614.5 529.51 620.1 525.69 624.89 521.46 629.09 516.46 632.37 510.79 634.63 504.8 636.21 498.27 636.75 491.31 636.22 484.17 635.07 476.72 632.94 469.06 629.9 461.32 626.47 453.45 622.35 445.51 617.66 437.56 612.99 429.58 608.06 421.59 603.02 413.61 598.46 405.8 594.18 398.18 590.29 390.53 587.18 383.03 584.57 375.65 582.48 368.2 581.23 360.81 580.45 353.47 580.07 346 580.38 338.51 580.94 330.97 581.64 323.27 582.76 315.49 583.81 307.61 584.67 299.58 585.68 291.47 586.3 283.32 586.48 275.11 586.55 266.94 586.04 258.9 584.91 250.99 583.52 243.37 581.47 236.18 578.75 229.36 575.72 223.14 572.04 217.65 567.75 212.74 563.17 208.65 558.02 205.46 552.39 202.84 546.52 201.05 540.23 200.03 533.57 199.31 526.76 199.11 519.66 199.26 512.33 199.22 504.91 199.18 497.32 198.99 489.6 198.13 481.85 196.88 474.01 195.19 466.14 192.69 458.25 189.81 450.35 186.67 442.47 183.1 434.58 179.66 426.72 176.6 418.92 173.83 411.1 171.97 403.52 171.17 396.17 171.15 388.81 172.34 381.67 174.67 374.74 177.76 367.78 181.78 361.02 186.55 354.44 191.61 347.8 197.02 341.32 202.59 334.98 207.89 328.56 213.02 322.25 217.89 316.04 222.13 309.7 226 303.43 229.52 297.22 232.4 290.86 235.04 284.52 237.53 278.21 239.61 271.74 241.77 265.28 244.09 258.85 246.33 252.26 248.93 245.71 251.97 239.23 255.16 232.66 258.89 226.19 263.15 219.88 267.68 213.57 272.76 207.5 278.33 201.72 284.17 196.08 290.45 190.82 297.09 186.04 303.94 181.52 311.07 177.57 318.39 174.25 325.85 171.3 333.43 169.06 341.05 167.57 348.75 166.5 356.44 166.2 364.05 166.68 371.68 167.55 379.2 169.14 386.55 171.44" stroke-dasharray="0 10" transform="rotate(79.41176470588235, 400, 400)" opacity="0.47"></path><path d="M380.33 182.23C387.21 184.7 393.85 187.66 400.24 191.02 406.64 194.42 412.82 198.1 418.81 201.98 424.84 205.73 430.75 209.58 436.58 213.49 442.56 217.13 448.56 220.78 454.68 224.4 461.07 227.71 467.72 230.98 474.68 234.22 482.06 237.14 489.88 240.07 498.17 243.01 506.92 245.68 516.15 248.42 525.79 251.26 535.72 253.9 545.88 256.69 556.06 259.66 566.06 262.52 575.68 265.59 584.61 268.92 592.68 272.19 599.56 275.74 604.94 279.57 609.95 285.46 608.54 298.78 602.62 306.21 597.54 311.27 591.77 316.63 585.82 322.25 580.69 327.89 576.43 333.79 573.55 339.93 572.77 346.07 573.97 352.45 577.24 359.03 582.74 365.62 589.91 372.42 598.26 379.41 607.44 386.4 616.25 393.43 624.01 400.47 630.58 407.53 635.01 414.63 637 421.75 636.78 428.9 633.98 436.1 628.82 443.35 621.85 450.65 613.2 458.02 603.41 465.46 593.06 472.97 582.49 480.57 572.17 488.25 562.52 496.02 553.75 503.86 546.04 511.76 539.61 519.74 534.36 527.74 530.19 535.74 527.24 543.74 525.09 551.68 523.51 559.48 522.68 567.19 522.01 574.66 521.29 581.81 520.36 591.95 515.96 609.01 512.02 615.48 507 620.31 493.26 624.58 484.82 623.9 478.85 622.6 472.47 620.44 465.76 617.48 458.96 614.2 451.9 610.31 444.63 605.91 437.34 601.56 429.88 596.95 422.28 592.23 414.68 587.94 407.13 583.87 399.63 580.13 392.12 577.07 384.64 574.43 377.19 572.23 369.7 570.77 362.19 569.73 354.66 569.04 347.05 568.99 339.38 569.17 331.65 569.5 323.83 570.26 315.94 570.98 308.01 571.59 300.03 572.38 292.04 572.88 284.1 573.02 276.22 573.13 268.5 572.76 261.02 571.87 253.78 570.81 246.94 569.17 240.6 566.94 232.08 562.95 219.36 551.75 215.39 544.69 213.48 539.61 212.27 534.11 211.7 528.23 211.28 522.2 211.24 515.85 211.43 509.25 211.32 502.55 211.14 495.63 210.74 488.56 209.67 481.44 208.2 474.19 206.31 466.86 203.67 459.51 200.69 452.1 197.49 444.66 193.91 437.22 190.48 429.76 187.42 422.31 184.63 414.85 182.7 407.57 181.76 400.48 181.56 393.37 182.5 386.44 184.54 379.68 187.31 372.89 191.03 366.25 195.51 359.76 200.34 353.21 205.62 346.79 211.13 340.47 216.5 334.08 221.81 327.78 226.93 321.55 231.54 315.21 235.84 308.92 239.8 302.68 243.15 296.31 246.23 289.97 249.08 283.65 251.47 277.21 253.8 270.79 256.17 264.42 258.32 257.94 260.69 251.52 263.35 245.19 266.02 238.82 269.1 232.58 272.62 226.52 276.28 220.51 280.43 214.75 285.02 209.31 289.82 204.01 295.05 199.12 300.65 194.69 306.43 190.53 312.53 186.92 318.88 183.92 325.36 181.27 332.03 179.28 338.82 178 345.68 177.12 352.61 176.94 359.55 177.5 366.51 178.4 373.45 179.99 380.32 182.23" stroke-dasharray="4 3" transform="rotate(84.70588235294117, 400, 400)" opacity="0.50"></path><path d="M377.58 193.02C384.04 195.41 390.41 198.26 396.68 201.5 402.95 204.78 409.16 208.34 415.31 212.11 421.53 215.76 427.77 219.54 434.05 223.39 440.49 227.02 447.08 230.67 453.86 234.32 460.89 237.68 468.2 241.03 475.85 244.36 483.8 247.4 492.12 250.43 500.8 253.48 509.74 256.28 518.96 259.12 528.37 262.04 537.8 264.76 547.19 267.6 556.32 270.57 565.04 273.42 573.14 276.45 580.36 279.69 589.16 284.54 597.85 295.43 597.22 301.52 595.13 305.66 591.69 310.09 587.15 314.78 582.3 319.48 577.08 324.45 571.93 329.69 566.05 337.68 563.15 354.92 567.45 364.13 572.84 370.34 579.65 376.79 587.45 383.45 595.98 390.12 604.19 396.85 611.51 403.64 617.87 410.44 622.38 417.3 624.79 424.21 625.3 431.16 623.51 438.17 619.54 445.24 613.88 452.35 606.54 459.54 597.95 466.8 588.61 474.11 578.78 481.5 568.87 488.94 559.27 496.43 550.2 503.98 541.87 511.54 534.5 519.13 528.09 526.7 522.63 534.22 518.25 541.7 514.69 549.06 511.79 556.23 509.69 563.27 507.97 570.03 506.42 576.44 504.65 585.43 500.15 600.21 496.84 605.62 492.84 609.55 481.75 612.51 474.74 611.49 469.77 610.09 464.33 607.93 458.48 605.06 452.56 601.95 446.28 598.3 439.69 594.19 433.07 590.14 426.18 585.85 419.03 581.44 411.89 577.41 404.67 573.56 397.41 569.97 390.14 566.98 382.81 564.33 375.44 562.05 368.04 560.43 360.58 559.15 353.07 558.2 345.52 557.82 337.91 557.65 330.25 557.63 322.57 558.03 314.87 558.43 307.17 558.75 299.53 559.29 291.96 559.61 284.53 559.66 277.26 559.74 270.24 559.42 263.55 558.68 254.23 557.17 238.87 551.37 233.18 547.05 228.92 541.94 224.37 529.12 223.73 521.57 223.5 516.28 223.52 510.66 223.65 504.75 223.41 498.75 223.03 492.51 222.4 486.07 221.09 479.59 219.41 472.93 217.32 466.16 214.56 459.36 211.49 452.46 208.26 445.48 204.69 438.5 201.28 431.46 198.23 424.37 195.44 417.29 193.45 410.33 192.39 403.5 192.01 396.67 192.71 389.96 194.44 383.38 196.89 376.78 200.26 370.28 204.41 363.9 208.97 357.47 214.02 351.13 219.4 344.87 224.74 338.54 230.13 332.28 235.43 326.07 240.33 319.77 244.99 313.52 249.37 307.3 253.2 300.98 256.74 294.7 260.04 288.44 262.85 282.1 265.52 275.8 268.13 269.55 270.42 263.24 272.81 257.02 275.35 250.91 277.78 244.79 280.5 238.83 283.53 233.08 286.6 227.39 290.06 221.98 293.9 216.9 297.86 211.98 302.21 207.47 306.93 203.41 311.77 199.61 316.94 196.34 322.41 193.65 327.97 191.3 333.77 189.56 339.78 188.49 345.83 187.77 352.04 187.71 358.35 188.33 364.68 189.27 371.1 190.84 377.57 193.02" stroke-dasharray="2 3" transform="rotate(90, 400, 400)" opacity="0.53"></path><path d="M378.77 203.81C384.9 206.11 391.05 208.86 397.22 211.96 403.42 215.11 409.66 218.54 415.98 222.18 422.35 225.73 428.85 229.41 435.49 233.19 442.25 236.77 449.23 240.41 456.43 244.05 463.81 247.45 471.47 250.85 479.4 254.24 487.5 257.38 495.86 260.52 504.42 263.66 513.06 266.57 521.77 269.52 530.45 272.53 538.95 275.34 547.17 278.24 554.92 281.26 565.35 285.65 580.22 295.11 583.83 300.28 584.47 305.58 577.93 317.35 571.71 323.84 567.29 328.24 562.73 332.89 558.42 337.8 553.9 345.28 553.07 361.47 557.69 370.16 562.94 376.03 569.38 382.14 576.64 388.48 584.54 394.83 592.17 401.26 599.03 407.77 605.13 414.28 609.66 420.88 612.39 427.54 613.51 434.23 612.6 440.99 609.73 447.82 605.3 454.68 599.26 461.61 591.91 468.59 583.71 475.61 574.81 482.69 565.58 489.79 556.36 496.92 547.35 504.06 538.78 511.18 530.86 518.3 523.64 525.35 517.19 532.31 511.63 539.19 506.81 545.91 502.65 552.4 499.27 558.74 496.36 564.77 493.78 570.43 490.71 578.29 484.88 590.89 481.52 595.34 473.05 599.36 455.61 596.48 448.12 592.66 442.93 589.72 437.34 586.31 431.38 582.49 425.4 578.73 419.08 574.75 412.43 570.65 405.79 566.88 398.99 563.25 392.07 559.82 385.16 556.91 378.14 554.27 371.02 551.94 363.91 550.19 356.71 548.72 349.45 547.53 342.2 546.85 334.9 546.37 327.59 546.03 320.32 546.08 313.08 546.15 305.92 546.19 298.89 546.46 291.99 546.57 285.32 546.47 275.81 546.28 259.18 544.14 252.39 542.01 243.09 535.27 236.36 520.27 236.07 513.69 235.89 506.59 235.12 490.72 233.92 482.1 232.38 476.24 230.48 470.17 228.22 463.95 225.34 457.7 222.22 451.31 218.97 444.81 215.43 438.3 212.06 431.69 209.04 424.99 206.26 418.29 204.23 411.67 203.06 405.14 202.52 398.6 202.97 392.14 204.4 385.76 206.51 379.37 209.52 373.05 213.3 366.81 217.52 360.53 222.29 354.31 227.44 348.14 232.66 341.93 238.02 335.76 243.39 329.63 248.49 323.43 253.43 317.27 258.15 311.14 262.41 304.94 266.42 298.78 270.18 292.66 273.48 286.48 276.59 280.36 279.57 274.31 282.19 268.24 284.8 262.27 287.46 256.43 289.92 250.62 292.54 244.99 295.37 239.59 299.66 231.76 309.78 217.96 315.7 212.21 322.02 207.31 336.32 200.64 344.18 199.02 352.33 198.48 369.65 200.92 378.76 203.81" stroke-dasharray="4 3" transform="rotate(95.29411764705883, 400, 400)" opacity="0.55"></path><path d="M383.71 214.6C389.55 216.81 395.51 219.44 401.58 222.4 407.67 225.42 413.9 228.7 420.27 232.19 433.17 238.95 446.86 246.18 461.32 253.6 476.19 260.2 491.84 266.85 507.83 273.51 523.49 279.32 538.4 285.33 551.35 291.61 561.9 297.33 568.73 303.62 570.91 310.55 569.76 317.22 564.53 324.74 556.48 333.13 549.17 341.43 543.23 350.69 540.87 360.88 541.93 365.96 544.3 371.28 547.96 376.84 553.03 382.39 559.09 388.18 565.83 394.2 573.12 400.22 580.17 406.34 586.58 412.54 592.38 418.75 596.87 425.05 599.83 431.41 601.59 444.19 596.32 457.28 585.2 470.53 570.49 483.83 553.5 497.24 536.4 510.47 520.75 523.55 507.24 536.17 496.16 547.9 487.77 558.96 481.03 568.6 475.11 576.31 470.43 582.72 465.26 586.75 459.05 588.09 452.93 587.97 445.3 585.31 436.08 580.27 431.43 577.52 426.39 574.34 420.98 570.81 415.55 567.34 409.77 563.66 403.64 559.86 397.51 556.35 391.2 552.93 384.74 549.67 378.3 546.86 371.72 544.26 365.04 541.91 351.77 538.7 338.2 536.37 324.69 534.7 311.56 534.5 298.88 534.25 287.17 533.54 276.44 533.28 267.29 531.9 260.22 529.17 254.51 526.19 250.95 521.61 249.44 515.47 248.3 508.93 248.06 500.92 248 491.67 246.16 482.15 243.22 471.6 238.99 460.24 236.03 454.54 232.87 448.65 229.62 442.62 226.14 436.59 222.83 430.41 219.85 424.12 217.1 417.82 215.05 411.56 213.78 405.34 213.08 399.12 213.3 392.93 214.43 386.8 218.58 374.5 225.86 362.32 235.31 350.34 245.36 338.21 255.89 326.16 266.11 314.27 274.93 302.22 282.9 290.32 290.12 278.78 295.88 267.24 301.52 256.24 307.43 246.11 312.78 236.41 319.02 227.95 326.33 221.11 333.6 215.22 342.08 211.29 351.7 209.6 359.05 209.26 375.06 211.8 383.7 214.6" stroke-dasharray="5 9" transform="rotate(100.58823529411765, 400, 400)" opacity="0.58"></path><path d="M391.52 225.39C402.68 229.74 414.55 235.47 427.06 242.16 439.71 248.67 453.12 255.7 467.12 262.97 481.22 269.56 495.67 276.27 509.88 283.01 523.34 289 535.49 295.16 545.3 301.55 552.79 307.4 556.76 313.71 556.73 320.55 554.29 327.1 548.82 334.38 541.57 342.42 535.66 350.33 531.4 359.12 530.47 368.76 534.78 378.36 543.34 388.86 555.02 400.26 568.58 411.65 579.99 423.44 587.11 435.48 589.88 447.55 586.51 459.88 577.75 472.29 565.43 484.69 550.34 497.08 534.34 509.17 518.82 521.04 504.56 532.33 492.11 542.64 481.79 552.28 473.09 560.5 465.49 566.9 459.22 572.14 453.02 575.22 446.35 575.91 440.02 575.41 432.64 572.69 424.03 567.91 415.39 562.73 405.43 556.29 394.2 549.07 382.97 542.86 371.09 537.04 358.88 531.93 346.81 528.52 334.61 525.81 322.66 523.66 311.17 522.85 300.34 522.04 290.65 520.92 278.31 519.59 264.01 511.62 261.92 504.23 260.98 498.57 260.53 491.56 259.98 483.35 257.62 474.94 254.19 465.47 249.63 455.14 243.22 444.73 236.56 433.58 230.66 421.82 225.59 410.05 223.44 398.26 224.54 386.55 227.97 374.82 234.41 363.12 243.07 351.54 252.6 339.87 262.91 328.26 273.27 316.81 282.65 305.29 291.4 293.97 299.47 283.05 306.19 272.24 312.6 262.02 319 252.69 324.66 243.84 330.89 236.21 337.9 230.13 344.69 224.93 352.53 221.56 361.46 220.23 370.34 219.92 380.35 221.64 391.51 225.39" stroke-dasharray="5 4" transform="rotate(105.88235294117648, 400, 400)" opacity="0.61"></path><path d="M400.82 236.18C411.47 240.32 422.85 245.74 434.81 252.08 446.83 258.31 459.43 265.09 472.32 272.16 485.05 278.68 497.69 285.36 509.6 292.12 520.55 298.24 529.84 304.52 536.67 310.99 541.49 316.96 543.19 323.31 541.61 330.09 538.5 336.58 533.29 343.68 527.12 351.43 522.67 359.04 519.98 367.42 520.3 376.56 525.11 385.65 533.41 395.57 544.2 406.3 556.61 417.03 567.22 428.11 574.26 439.37 577.81 450.66 576.08 462.12 569.51 473.57 559.57 484.97 546.62 496.24 532.18 507.11 517.48 517.71 503.22 527.64 490.12 536.56 478.51 544.83 468.27 551.74 459.18 556.93 451.32 561.14 443.9 563.4 436.47 563.56 429.51 562.78 421.97 560.06 413.63 555.56 405.34 550.8 396.06 544.91 385.79 538.28 375.52 532.52 364.81 527.01 353.96 522.02 343.26 518.46 332.63 515.45 322.46 512.9 312.74 511.54 303.84 510.22 296.15 508.68 286.53 506.88 276.12 499.21 274.68 492.59 273.68 487.61 272.87 481.43 271.73 474.12 268.84 466.67 264.96 458.18 260.13 448.81 253.73 439.37 247.21 429.14 241.48 418.21 236.49 407.29 234.15 396.22 234.75 385.15 237.47 374.07 243.02 362.95 250.8 351.89 259.62 340.8 269.48 329.76 279.7 318.9 289.35 308.03 298.65 297.41 307.41 287.23 315.05 277.23 322.3 267.86 329.38 259.39 335.66 251.41 342.23 244.61 349.33 239.28 356.08 234.75 363.68 231.9 372.22 230.92 380.65 230.83 390.17 232.58 400.82 236.18" stroke-dasharray="8 11" transform="rotate(111.1764705882353, 400, 400)" opacity="0.64"></path><path d="M409.98 246.97C420.09 250.88 430.76 255.99 441.82 261.96 452.88 267.88 464.22 274.36 475.5 281.17 486.47 287.56 496.95 294.15 506.35 300.86 514.75 307.03 521.36 313.37 525.63 319.88 528.3 325.94 528.37 332.31 525.91 339.04 522.67 345.49 518.11 352.44 513.22 359.94 510.22 367.29 508.97 375.3 510.35 383.96 515.5 392.58 523.47 401.92 533.39 411.96 544.68 422.01 554.47 432.32 561.31 442.75 565.41 453.18 565.05 463.7 560.44 474.1 552.79 484.43 542.1 494.52 529.55 504.12 516.21 513.44 502.65 522.04 489.62 529.62 477.45 536.61 466.28 542.31 456.12 546.43 446.96 549.73 438.41 551.32 430.18 551.07 422.43 550.08 414.52 547.43 406.24 543.25 398.06 538.9 389.27 533.54 379.88 527.49 370.48 522.18 360.95 516.99 351.51 512.16 342.21 508.53 333.21 505.3 324.83 502.42 313.29 499.7 296.51 494.55 291.86 491 288.82 486.85 285.61 473.54 283.18 464.24 279.79 457.59 275.52 449.98 270.48 441.49 264.15 432.95 257.83 423.6 252.29 413.53 247.42 403.46 244.93 393.17 245.07 382.8 247.09 372.44 251.75 361.99 258.57 351.59 266.52 341.19 275.71 330.84 285.51 320.69 295.12 310.59 304.65 300.77 313.85 291.43 322.21 282.31 330.22 273.84 337.98 266.26 345 259.17 352.12 253.19 359.52 248.58 366.54 244.69 374.16 242.33 382.51 241.67 390.74 241.77 399.87 243.53 409.98 246.97" stroke-dasharray="9 4" transform="rotate(116.47058823529413, 400, 400)" opacity="0.66"></path><path d="M417.38 257.76C426.87 261.43 436.65 266.2 446.55 271.79 456.39 277.36 466.18 283.5 475.59 290.01 484.63 296.19 492.86 302.62 499.84 309.2 505.93 315.34 510.27 321.67 512.52 328.14 513.67 334.24 512.77 340.6 510.03 347.25 507.12 353.65 503.49 360.46 499.96 367.7 498.35 374.81 498.36 382.47 500.6 390.66 505.95 398.82 513.52 407.57 522.58 416.92 532.79 426.26 541.73 435.77 548.28 445.31 552.72 454.83 553.46 464.34 550.56 473.65 545.02 482.87 536.57 491.76 526.09 500.1 514.52 508.17 502.22 515.49 489.9 521.82 477.92 527.64 466.51 532.25 455.86 535.44 445.9 537.98 436.56 539.01 427.71 538.46 419.29 537.35 411 534.81 402.71 530.96 394.54 527.03 386.14 522.19 377.51 516.7 368.89 511.84 360.45 506.98 352.36 502.35 344.36 498.72 336.87 495.34 330.12 492.23 320.86 488.91 307.96 482.68 304.47 478.89 301.82 474.74 297.62 462.4 294.28 453.99 290.42 448.02 285.85 441.16 280.69 433.48 274.5 425.77 268.41 417.26 263.1 408.04 258.38 398.82 255.78 389.34 255.52 379.75 256.88 370.17 260.65 360.49 266.46 350.85 273.43 341.24 281.75 331.69 290.88 322.36 300.11 313.12 309.54 304.19 318.85 295.76 327.62 287.57 336.15 280.02 344.43 273.35 352.12 267.13 359.78 261.96 367.53 258.04 374.94 254.76 382.71 252.86 390.96 252.48 399.09 252.74 407.89 254.5 417.38 257.76" stroke-dasharray="7 6" transform="rotate(121.76470588235294, 400, 400)" opacity="0.69"></path><path d="M421.71 268.55C430.5 271.97 439.26 276.39 447.85 281.58 456.35 286.78 464.49 292.54 472 298.68 479.14 304.59 485.32 310.78 490.2 317.15 494.38 323.18 497 329.4 497.89 335.77 498.12 341.83 496.85 348.12 494.35 354.63 492.1 360.93 489.57 367.57 487.41 374.54 487.05 381.41 488.14 388.7 491.03 396.41 496.45 404.09 503.56 412.25 511.77 420.87 520.92 429.48 529.02 438.15 535.18 446.76 539.78 455.35 541.35 463.83 539.88 472.03 536.21 480.13 529.88 487.84 521.52 494.97 511.95 501.85 501.31 507.98 490.25 513.17 479.11 517.93 468.13 521.6 457.61 524.01 447.48 525.91 437.85 526.51 428.74 525.75 419.94 524.59 411.45 522.21 403.22 518.71 395.1 515.18 387.05 510.86 379.12 505.91 371.18 501.48 363.7 496.99 356.78 492.6 349.9 489.01 343.68 485.58 338.25 482.31 330.76 478.53 320.49 471.35 317.54 467.29 314.79 463.05 309.17 451.37 304.95 443.67 300.73 438.26 295.94 432.07 290.75 425.12 284.76 418.15 278.96 410.45 273.91 402.07 269.38 393.69 266.72 385.05 266.09 376.3 266.85 367.56 269.76 358.72 274.55 349.93 280.47 341.18 287.76 332.52 295.99 324.09 304.55 315.79 313.52 307.8 322.58 300.32 331.39 293.09 340.1 286.49 348.62 280.71 356.74 275.34 364.77 270.94 372.76 267.69 380.49 264.97 388.38 263.48 396.49 263.35 404.52 263.75 412.92 265.48 421.71 268.55" stroke-dasharray="3 10" transform="rotate(127.05882352941177, 400, 400)" opacity="0.72"></path><path d="M422.21 279.34C430.21 282.5 437.9 286.56 445.15 291.32 452.32 296.12 458.9 301.47 464.69 307.2 470.19 312.77 474.66 318.64 477.92 324.71 480.73 330.54 482.22 336.57 482.38 342.73 482.27 348.66 481.12 354.8 479.22 361.11 477.85 367.25 476.48 373.66 475.6 380.32 476.34 386.89 478.28 393.79 481.64 401 486.99 408.18 493.59 415.72 500.97 423.58 509.11 431.44 516.35 439.26 522.05 446.93 526.63 454.58 528.79 462.02 528.45 469.14 526.37 476.15 521.94 482.73 515.62 488.72 508.11 494.49 499.38 499.54 489.94 503.72 480.15 507.57 470.18 510.43 460.38 512.2 450.7 513.58 441.33 513.85 432.4 512.98 423.65 511.83 415.27 509.65 407.27 506.5 399.35 503.38 391.71 499.54 384.4 495.12 377.09 491.13 370.42 487 364.43 482.88 355.81 477.7 342.39 468.55 337.66 464.34 333.52 460.62 327.38 451.95 324.46 446.56 321.69 442.88 318.62 438.56 315.17 433.61 310.69 428.66 305.79 423.03 300.67 416.76 294.94 410.47 289.48 403.53 284.72 395.98 280.42 388.43 277.73 380.65 276.81 372.76 277.03 364.9 279.13 356.96 282.93 349.08 287.75 341.26 293.93 333.54 301.08 326.08 308.71 318.74 316.91 311.74 325.37 305.23 333.82 298.96 342.31 293.28 350.71 288.38 358.9 283.83 367 280.16 374.99 277.51 382.81 275.31 390.65 274.2 398.5 274.28 406.3 274.79 414.22 276.47 422.21 279.34" stroke-dasharray="2 0" transform="rotate(132.3529411764706, 400, 400)" opacity="0.75"></path><path d="M418.8 290.13C425.94 293.02 432.56 296.71 438.59 301.03 444.54 305.41 449.78 310.3 454.17 315.57 458.38 320.74 461.62 326.23 463.82 331.92 466.26 340.32 466.36 357.69 464.97 366.66 464.55 372.55 464.31 378.66 464.56 384.94 466.18 391.15 468.76 397.6 472.4 404.27 477.56 410.91 483.6 417.8 490.16 424.89 497.31 431.98 503.72 438.93 508.89 445.66 513.3 452.37 515.81 458.82 516.32 464.89 515.52 470.87 512.73 476.4 508.26 481.35 502.73 486.12 495.95 490.22 488.33 493.53 480.22 496.59 471.69 498.79 463.06 500.05 454.36 501.04 445.76 501.08 437.46 500.17 429.23 499.07 421.29 497.11 413.76 494.34 406.28 491.6 399.14 488.24 392.43 484.33 385.72 480.77 379.72 477.02 374.42 473.21 366.8 468.23 354.94 458.97 350.55 454.54 346.42 450.52 339.26 441.55 335.49 436.28 332.23 432.71 328.71 428.65 324.9 424.07 320.28 419.51 315.4 414.39 310.43 408.74 305.04 403.07 299.96 396.86 295.54 390.13 291.49 383.39 288.83 376.47 287.67 369.48 287.43 362.52 288.81 355.51 291.66 348.58 295.41 341.71 300.42 334.97 306.4 328.5 312.91 322.14 320.08 316.13 327.64 310.58 335.35 305.25 343.24 300.47 351.14 296.4 358.99 292.62 366.79 289.63 374.47 287.54 382.07 285.81 389.59 285.03 396.99 285.27 404.36 285.87 411.66 287.48 418.8 290.13" stroke-dasharray="0 3" transform="rotate(137.6470588235294, 400, 400)" opacity="0.78"></path><path d="M412.07 300.91C424.57 306.29 434.52 314.27 441.45 323.81 447.99 333.17 451.25 343.69 451.57 354.75 452.64 365.34 452.96 376.65 454.29 388.36 459.94 399.87 468.64 412.11 479.34 424.71 491.9 437.31 500.59 449.06 503.59 459.32 502.85 469.31 495.97 477.35 484.91 482.7 471.87 487.34 457.1 488.98 442.51 487.34 427.86 485.29 414 480.56 401.8 473.54 389.6 467.58 379.96 460.88 372.75 454.08 365.15 448.77 359.3 442.95 354.58 436.52 348.18 430.86 341.47 423.83 334.12 415.32 324.4 406.95 314.54 396.74 306.35 384.86 299.36 372.99 297.55 360.64 300.81 348.66 307.02 336.9 317.3 325.85 329.87 316.46 343.41 307.76 357.8 301.25 371.85 297.77 385.91 295.41 399.56 296.34 412.07 300.91" stroke-dasharray="3 6" transform="rotate(142.94117647058823, 400, 400)" opacity="0.80"></path><path d="M403.21 311.7C413.92 316.47 422.18 323.5 427.81 331.94 433.34 340.33 436.44 349.84 437.6 359.87 439.81 369.63 441.82 380.01 444.75 390.62 450.95 401.11 459.19 412.06 468.53 423.06 479.27 434.06 486.97 444.04 490.35 452.5 491.22 460.77 487.15 467.21 479.36 471.32 469.83 474.95 458.24 476.09 446.15 474.53 433.82 472.77 421.75 468.76 410.85 462.76 399.94 457.54 391.06 451.48 384.05 445.14 376.61 439.9 370.32 434.11 364.73 427.81 357.73 422.14 350.44 415.4 342.83 407.58 333.6 399.9 324.56 390.82 317.16 380.5 310.72 370.17 308.5 359.64 310.44 349.56 314.68 339.67 322.51 330.55 332.58 322.94 343.73 315.89 355.98 310.76 368.16 308.21 380.53 306.51 392.49 307.57 403.21 311.7" stroke-dasharray="6 3" transform="rotate(148.23529411764704, 400, 400)" opacity="0.83"></path><path d="M393.78 322.49C402.76 326.62 409.73 332.68 414.67 339.98 419.7 347.29 423.09 355.65 425.31 364.49 428.58 373.2 431.9 382.43 435.9 391.8 442.2 401.1 449.74 410.66 457.72 420.05 466.7 429.43 473.31 437.73 476.7 444.59 477.58 453.86 460.92 462.75 447.24 461.76 437.5 460.31 427.49 457 417.98 451.97 408.48 447.5 400.3 442.16 393.36 436.41 386.07 431.44 379.43 425.89 373.22 419.91 365.97 414.41 358.51 408.09 351.04 401.01 342.57 394.06 334.51 386.09 327.97 377.29 322.17 368.48 319.73 359.7 320.59 351.46 323.13 343.36 328.67 336.03 336.25 330.07 344.82 324.52 354.59 320.62 364.56 318.86 374.79 317.71 384.8 318.83 393.78 322.49" stroke-dasharray="4 8" transform="rotate(153.52941176470588, 400, 400)" opacity="0.86"></path><path d="M385.45 333.28C392.78 336.76 398.74 341.82 403.34 347.93 408.1 354.09 411.9 361.17 415.05 368.69 419.04 376.16 423.18 384.08 427.68 392.05 433.68 400 440.3 408.06 446.91 415.84 460.85 435.03 454.83 449.9 445.02 449.05 437.81 447.92 429.94 445.28 421.95 441.18 413.95 437.46 406.58 432.89 399.9 427.87 392.97 423.34 386.31 418.26 379.91 412.81 372.86 407.68 365.73 401.94 358.8 395.71 351.33 389.56 344.38 382.75 338.79 375.43 333.71 368.12 331.24 361.01 331.29 354.49 332.46 348.06 336.02 342.39 341.32 337.9 347.37 333.69 354.61 330.85 362.28 329.73 370.18 329.03 378.12 330.14 385.45 333.28" stroke-dasharray="11 1" transform="rotate(158.8235294117647, 400, 400)" opacity="0.89"></path><path d="M379.68 344.07C391.25 349.86 400.17 360.41 406.97 372.57 416.02 384.72 426.32 398.34 436.09 410.69 449.92 427.31 439.96 437.75 422.04 430.39 409.24 424.77 396.49 416.11 384.84 406.47 371.87 397.63 358.88 386.73 349.6 375.04 341.68 363.34 341.8 353.04 348.08 346.44 356.27 340.5 368.12 339.15 379.68 344.07" stroke-dasharray="9 0" transform="rotate(164.11764705882354, 400, 400)" opacity="0.92"></path><path d="M377.5 354.86C386.12 359.22 394.09 367.11 401.01 376.24 409.16 385.43 417.85 395.72 425.28 404.9 435.54 417.19 430.99 424.9 418.24 419.6 408.73 415.33 398.16 408.51 388.2 400.83 377.75 393.57 367.56 384.91 360.41 376.12 353.62 363.69 365.05 351.32 377.5 354.86" stroke-dasharray="9 9" transform="rotate(169.41176470588235, 400, 400)" opacity="0.94"></path><path d="M379.28 365.65C390.83 371.64 405.15 386.68 414.47 398.82 425.39 410.95 423.71 415.21 411.23 408.81 398.74 403.36 381.05 390.39 371.22 378.63 362.84 366.86 367.72 360.55 379.28 365.65" stroke-dasharray="1 3" transform="rotate(174.7058823529412, 400, 400)" opacity="0.97"></path></g></svg>