<svg xmlns="http://www.w3.org/2000/svg" version="1.1" xmlns:xlink="http://www.w3.org/1999/xlink" xmlns:svgjs="http://svgjs.dev/svgjs" viewBox="0 0 1422 800"><g stroke-width="2" stroke="hsl(10, 75%, 40%)" fill="none" stroke-linecap="round"><path d="M691.56 55.83C697.34 53.68 703.04 51.49 708.67 49.36 717.08 46.31 733.5 42.28 741.52 41.75 746.84 42.02 752.09 42.91 757.27 44.4 767.67 48.73 777.82 55.06 787.78 62.82 797.87 70.94 807.86 79.22 817.83 87.07 828.06 93.63 838.42 99.11 848.97 103.49 859.96 106.4 871.28 108.69 882.99 110.78 895.23 112.53 907.92 114.98 921.02 118.49 934.56 122.83 948.39 128.72 962.34 136.16 976.35 144.78 990.11 154.82 1003.33 166 1015.93 177.95 1027.45 190.6 1037.51 203.67 1046.23 216.89 1053.01 230.15 1057.62 243.29 1060.49 256.17 1061.1 268.81 1059.48 281.18 1056.53 293.19 1051.89 304.99 1045.95 316.67 1039.95 328.05 1033.69 339.44 1027.77 350.92 1025.37 356.6 1023.24 362.33 1021.47 368.11 1020.24 373.87 1019.46 379.7 1019.15 385.6 1019.49 391.49 1020.34 397.47 1021.72 403.53 1023.74 409.6 1026.25 415.76 1029.23 422.01 1032.74 428.27 1036.57 434.56 1040.64 440.86 1045.04 447.17 1049.52 453.49 1053.98 459.82 1058.54 466.15 1062.93 472.47 1067.05 478.78 1071.03 485.07 1074.59 491.33 1077.69 497.54 1082.78 509.85 1085.39 521.81 1085.33 533.24 1083.11 544.26 1078.19 554.47 1070.8 563.62 1061.65 572.09 1050.64 579.27 1038.24 585.02 1025.12 590.03 1011.4 593.68 997.5 596.11 983.91 598.39 970.71 600.1 958.12 601.74 946.45 604.57 935.56 608.45 925.47 614.01 916.39 622.11 907.97 632.61 900.08 645.61 892.96 660.97 886.11 677.98 879.35 695.76 873.02 713.19 866.52 728.97 859.73 741.7 853.09 750.63 845.98 754.74 838.34 753.7 830.68 748.66 822.42 740 813.54 729.3 804.59 719.35 795.02 711.35 784.86 707.17 779.75 707.15 774.5 708.47 769.11 711.15 763.7 715.27 758.17 720.6 752.5 726.99 746.83 734.29 741.03 742.15 735.11 750.26 729.19 758.38 723.16 766.09 717.01 773.03 710.87 779.01 704.69 783.59 698.49 786.6 692.29 788.07 686.07 787.78 679.84 785.77 673.62 782.25 667.38 777.24 661.14 770.93 654.92 763.68 648.69 755.65 642.47 747.15 630.08 730.09 617.74 714.51 605.52 702.2 593.39 694.62 581.41 691.74 569.65 693.07 558.04 698.27 546.71 705.24 535.72 712.34 524.94 718.87 514.56 722.72 504.66 723.05 495.01 720.02 485.88 712.96 477.32 702.34 469.02 688.99 461.3 673.46 454.18 656.7 447.26 639.47 440.88 622.5 435.06 606.38 429.3 591.42 423.99 577.88 419.12 565.77 414.14 555.15 409.5 545.69 405.17 537.1 400.61 529.52 396.3 522.27 392.24 515.04 387.92 508.24 383.86 501.06 380.1 493.34 376.13 485.68 372.53 477.3 369.36 468.16 367 461.17 362.92 446.22 361.25 438.25 359.76 430.09 357.67 412.85 357.12 403.79 356.86 397.7 356.79 391.52 356.93 385.25 357.12 378.99 357.51 372.64 358.1 366.23 358.74 359.83 359.59 353.36 360.62 346.84 361.72 340.33 363 333.77 364.47 327.17 367.55 314.04 371.33 300.8 375.74 287.57 380.24 274.54 385.29 261.67 390.79 249.13 396.22 237 402.01 225.42 408.1 214.6 413.96 204.44 420.04 195.23 426.31 187.13 432.28 179.77 438.43 173.5 444.75 168.31 450.8 163.49 457.08 159.37 463.6 155.69 469.96 151.57 476.65 147.26 483.69 142.44 490.7 136.38 498.12 129.41 505.97 121.49 513.89 112.35 522.28 102.62 531.1 92.72 540.05 82.8 549.44 73.72 559.23 66.06 569.15 59.83 579.44 55.72 590.03 53.85 600.73 53.48 611.7 54.77 622.86 57.17 631.29 58.92 648.34 61.67 656.94 62.24 662.69 62.05 668.45 61.53 674.22 60.66 680 59.32 685.78 57.69 691.55 55.83" stroke-dasharray="9 3" transform="rotate(0, 711, 400)" opacity="0.05"></path><path d="M689.15 69.62C700.19 65.11 711.03 60.83 721.65 57.49 732.28 55.15 742.72 54.89 752.97 56.91 763.28 60.7 773.46 66.53 783.55 73.89 793.79 81.84 804.03 90.17 814.33 98.32 824.9 105.44 835.64 111.62 846.62 116.76 857.97 120.42 869.64 123.28 881.65 125.67 894.07 127.41 906.82 129.46 919.84 132.2 933.12 135.42 946.49 139.9 959.79 145.75 972.94 152.64 985.65 160.96 997.64 170.52 1008.89 180.99 1018.95 192.39 1027.52 204.47 1034.77 216.98 1040.17 229.81 1043.53 242.75 1045.38 255.71 1045.19 268.58 1043.06 281.29 1039.88 293.81 1035.29 306.14 1029.67 318.3 1024.15 330.26 1018.53 342.12 1013.31 353.93 1009.6 365.62 1007.16 377.35 1006.33 389.17 1007.84 400.95 1011.2 412.89 1016.3 424.98 1023.37 437.06 1031.29 449.01 1039.49 460.77 1048.08 472.49 1055.79 483.92 1062.1 494.95 1067.24 505.81 1070.19 516.09 1070.74 525.64 1069.37 534.82 1065.51 543.07 1059.32 550.25 1051.44 556.92 1041.71 562.45 1030.51 566.81 1018.46 570.86 1005.63 574 992.39 576.49 979.23 579.39 966.2 582.34 953.55 585.84 941.57 590.88 930.21 597.35 919.51 605.66 909.67 616.29 900.44 628.99 891.76 643.63 883.81 659.77 876.2 676.68 868.79 693.41 861.85 708.97 854.89 722.21 847.79 732.02 840.92 738.05 833.72 739.57 826.14 736.56 818.61 730.41 810.59 721.54 802.07 711.48 793.51 702.77 784.41 696.34 774.78 693.71 765.1 696.3 754.9 703.72 744.2 715.33 733.47 730.05 722.26 745.48 710.62 759.24 698.98 769.53 687.22 774.08 675.38 772.31 663.58 765.03 651.74 752.78 639.93 737.36 628.18 721.04 616.5 705.52 604.94 692.49 593.48 683.43 582.2 678.55 571.15 677.7 560.26 680.79 549.66 686.15 539.42 692.42 529.38 699.04 519.75 703.97 510.59 706.27 501.68 705.96 493.26 702.06 485.39 694.72 477.75 684.59 470.64 671.84 464.09 657.25 457.69 641.49 451.8 625.21 446.4 609.04 441.01 593.34 436.03 578.52 431.44 564.78 426.71 552.18 422.27 540.69 418.1 530.17 413.69 520.64 409.49 511.73 405.53 503.18 401.28 495.2 397.26 487.21 393.53 479.01 389.58 471.02 385.96 462.59 382.75 453.63 379.46 444.69 376.67 435.13 374.44 424.92 372.29 414.69 370.8 403.81 370.04 392.3 369.49 380.78 369.75 368.94 370.8 356.85 372.1 344.8 374.19 332.57 377.03 320.25 380.08 308.06 383.82 295.89 388.19 283.87 392.66 272.12 397.67 260.68 403.13 249.72 408.53 239.21 414.28 229.37 420.32 220.36 426.15 211.93 432.2 204.43 438.42 197.93 444.34 191.93 450.43 186.79 456.67 182.42 462.62 178.07 468.77 174.07 475.12 170.14 481.27 165.48 487.71 160.38 494.43 154.59 501.07 147.55 508.08 139.64 515.46 130.93 522.86 121.28 530.67 111.35 538.89 101.57 547.18 92.08 555.89 83.7 564.98 76.91 574.16 71.62 583.71 68.4 593.58 67.28 603.52 67.47 613.75 69.1 624.21 71.61 634.72 73.74 645.42 75.48 656.26 76.31 667.12 75.3 678.09 73 689.14 69.63" stroke-dasharray="0 6" transform="rotate(4.04, 711, 400)" opacity="0.09"></path><path d="M688.52 83.41C699.1 78.92 709.58 74.62 719.92 71.17 730.29 68.61 740.55 67.98 750.73 69.51 760.97 72.75 771.19 78.02 781.4 84.91 791.75 92.57 802.19 100.83 812.75 109.15 823.54 116.7 834.53 123.52 845.76 129.41 857.29 133.87 869.1 137.46 881.17 140.38 893.52 142.41 906.07 144.41 918.75 146.75 931.51 149.19 944.2 152.57 956.62 157.06 968.74 162.36 980.27 168.97 990.93 176.82 1000.8 185.57 1009.42 195.4 1016.54 206.08 1022.44 217.37 1026.58 229.22 1028.85 241.43 1029.82 253.86 1029 266.42 1026.51 278.97 1023.22 291.51 1018.78 303.95 1013.53 316.23 1008.53 328.44 1003.54 340.5 999.01 352.42 995.91 364.28 994 376.06 993.54 387.75 995.21 399.42 998.52 411.05 1003.38 422.62 1010.01 434.18 1017.4 445.39 1025.04 456.19 1033.1 466.94 1040.41 477.2 1046.51 486.87 1051.65 496.39 1054.85 505.2 1055.91 513.19 1055.3 520.92 1052.4 527.73 1047.32 533.58 1040.67 539.18 1032.19 543.9 1022.21 547.82 1011.31 551.82 999.47 555.41 987.05 558.88 974.5 563.15 961.87 567.96 949.39 573.73 937.36 581.16 925.76 590.11 914.67 600.8 904.28 613.37 894.43 627.53 885.08 642.91 876.4 658.96 868.08 674.95 860.04 689.95 852.48 703.18 845 713.66 837.5 720.57 830.27 723.94 822.87 723.24 815.2 718.72 807.64 711.89 799.72 703.18 791.4 694.01 783.1 686.64 774.34 681.77 765.13 680.59 755.89 684.22 746.19 692.14 736.04 703.68 725.87 717.83 715.27 732.46 704.27 745.44 693.26 755.28 682.14 759.9 670.97 758.76 659.83 752.55 648.66 741.6 637.54 727.41 626.48 711.97 615.5 696.73 604.67 683.26 593.94 673.03 583.4 666.41 573.11 663.48 562.98 664.41 553.14 667.92 543.68 672.92 534.4 679 525.53 684.3 517.13 687.86 508.93 689.62 501.21 688.4 494.01 684.09 486.99 677.18 480.46 667.5 474.45 655.6 468.53 642.1 463.07 627.43 458.05 612.21 453 596.8 448.3 581.68 443.94 567.17 439.41 553.33 435.14 540.37 431.1 528.28 426.8 517.02 422.69 506.48 418.78 496.49 414.59 487.1 410.61 477.97 406.88 468.92 402.94 460.18 399.31 451.28 396.07 442.11 392.74 433.04 389.89 423.57 387.59 413.65 385.38 403.73 383.81 393.33 382.97 382.44 382.35 371.55 382.53 360.46 383.5 349.24 384.74 338.06 386.77 326.83 389.53 315.65 392.54 304.61 396.22 293.73 400.52 283.15 404.95 272.84 409.9 262.96 415.3 253.68 420.66 244.79 426.37 236.61 432.36 229.24 438.17 222.29 444.19 216.16 450.37 210.84 456.28 205.72 462.34 201.2 468.52 197.12 474.42 192.75 480.49 188.4 486.72 183.83 492.73 178.36 498.97 172.29 505.46 165.47 511.82 157.49 518.49 148.78 525.49 139.5 532.45 129.6 539.78 119.72 547.48 110.3 555.21 101.46 563.32 93.93 571.79 88.09 580.31 83.75 589.2 81.4 598.4 80.98 607.66 81.67 617.21 83.56 627.03 86.12 636.87 88.17 646.94 89.73 657.21 90.35 667.48 89.21 677.93 86.82 688.51 83.42" stroke-dasharray="5 4" transform="rotate(8.08, 711, 400)" opacity="0.13"></path><path d="M689.73 97.21C699.91 92.75 710.05 88.45 720.15 84.91 730.27 82.14 740.38 81.17 750.48 82.21 760.65 84.89 770.87 89.57 781.14 95.92 791.55 103.18 802.09 111.24 812.77 119.58 823.65 127.44 834.74 134.78 846.02 141.36 857.53 146.64 869.25 151.03 881.13 154.65 893.16 157.23 905.28 159.51 917.37 161.8 929.4 163.87 941.2 166.53 952.58 169.99 963.56 173.96 973.81 179.05 983.12 185.27 991.6 192.27 998.83 200.37 1004.61 209.42 1009.26 219.14 1012.29 229.6 1013.63 240.59 1013.89 251.99 1012.59 263.7 1009.88 275.57 1006.59 287.59 1002.37 299.64 997.55 311.62 993.09 323.63 988.73 335.52 984.85 347.24 982.34 358.97 980.91 370.53 980.8 381.9 982.6 393.28 985.85 404.48 990.45 415.44 996.66 426.41 1003.53 436.86 1010.64 446.77 1018.18 456.62 1025.07 465.87 1030.93 474.44 1036.01 482.9 1039.39 490.62 1040.88 497.56 1040.92 504.38 1038.88 510.41 1034.83 515.71 1029.32 521.01 1022.06 525.75 1013.3 530.1 1003.57 534.85 992.82 539.61 981.34 544.68 969.56 550.78 957.51 557.71 945.43 565.79 933.59 575.39 921.99 586.41 910.74 598.85 900.03 612.61 889.75 627.34 879.91 642.58 870.64 657.73 861.73 672.11 853.12 684.88 844.96 695.5 836.97 703.19 829.05 707.37 821.42 708.4 813.72 705.91 805.88 700.35 798.19 693.25 790.25 685.02 782.02 676.94 773.84 670.99 765.31 667.63 756.42 667.79 747.52 672.33 738.24 680.64 728.58 692.02 718.9 705.59 708.86 719.42 698.46 731.65 688.06 741.03 677.58 745.69 667.08 745.12 656.6 739.91 646.13 730.22 635.72 717.29 625.38 702.83 615.13 688.07 605.05 674.45 595.07 663.35 585.3 655.26 575.8 650.45 566.43 649.27 557.37 650.79 548.69 654.18 540.16 659.2 532.04 664.23 524.37 668.32 516.86 671.44 509.8 672.26 503.22 670.51 496.78 666.56 490.79 659.93 485.26 650.96 479.77 640.2 474.69 627.82 469.99 614.36 465.22 600.21 460.76 585.77 456.59 571.42 452.23 557.27 448.08 543.63 444.13 530.61 439.91 518.15 435.86 506.35 431.99 495.15 427.84 484.46 423.87 474.18 420.15 464.2 416.21 454.54 412.57 444.97 409.3 435.39 405.95 425.94 403.06 416.33 400.7 406.51 398.44 396.72 396.81 386.66 395.89 376.32 395.21 365.98 395.32 355.62 396.2 345.31 397.38 335.03 399.32 324.87 402 314.9 404.93 305.05 408.53 295.51 412.75 286.38 417.1 277.47 421.98 269.08 427.3 261.31 432.6 253.83 438.26 247.02 444.2 240.92 449.98 235.04 455.98 229.79 462.14 225.11 468.04 220.37 474.08 215.93 480.24 211.64 486.12 206.81 492.15 201.75 498.31 196.28 504.23 189.85 510.35 182.76 516.67 174.97 522.83 166.22 529.25 156.93 535.95 147.33 542.57 137.46 549.52 127.9 556.79 119.08 564.04 111.07 571.65 104.49 579.6 99.66 587.56 96.28 595.86 94.75 604.49 94.97 613.13 96.06 622.09 98.14 631.33 100.69 640.58 102.61 650.09 103.97 659.83 104.38 669.58 103.09 679.55 100.63 689.72 97.21" stroke-dasharray="8 8" transform="rotate(12.12, 711, 400)" opacity="0.16"></path><path d="M692.69 111C702.49 106.59 712.33 102.3 722.2 98.7 732.08 95.77 742.02 94.46 752.01 95.04 762.07 97.15 772.22 101.21 782.47 106.96 792.84 113.72 803.35 121.45 814.01 129.68 824.82 137.68 835.81 145.4 846.95 152.55 858.22 158.6 869.63 163.82 881.09 168.24 892.6 171.56 904.06 174.38 915.36 176.96 926.49 179.04 937.26 181.39 947.48 184.22 957.23 187.25 966.18 191.14 974.14 195.96 981.29 201.37 987.22 207.8 991.76 215.17 995.3 223.17 997.38 232 997.97 241.49 997.66 251.45 996.03 261.89 993.22 272.65 990.03 283.68 986.12 294.87 981.76 306.11 977.85 317.47 974.11 328.78 970.85 339.97 968.88 351.21 967.9 362.29 968.08 373.14 969.99 384.02 973.17 394.65 977.53 404.98 983.33 415.31 989.7 425.06 996.29 434.21 1003.31 443.33 1009.79 451.82 1015.37 459.65 1020.34 467.43 1023.84 474.56 1025.67 481.04 1026.25 487.53 1024.97 493.47 1021.85 498.94 1017.41 504.62 1011.3 510.07 1003.73 515.49 995.19 521.51 985.56 527.87 975.11 534.83 964.24 542.83 952.94 551.78 941.43 561.84 930 573.14 918.63 585.55 907.46 598.95 896.66 613.04 886.17 627.49 876.03 641.77 866.35 655.35 857 667.6 847.94 677.83 839.29 685.77 830.84 690.77 822.52 692.53 814.5 691.62 806.49 687.82 798.43 681.67 790.55 674.68 782.52 667.21 774.31 660.37 766.16 655.85 757.77 653.94 749.12 655.32 740.48 660.63 731.53 669.21 722.3 680.37 713.05 693.33 703.51 706.36 693.68 717.86 683.85 726.78 673.99 731.45 664.14 731.39 654.32 727.12 644.53 718.64 634.84 706.97 625.21 693.58 615.7 679.48 606.38 665.95 597.15 654.29 588.14 645.04 579.41 638.61 570.8 635.45 562.51 634.94 554.57 636.53 546.77 640.1 539.36 644.29 532.37 648.27 525.5 651.99 519.05 654.15 513.05 654.34 507.12 652.85 501.6 648.99 496.49 642.88 491.38 635.01 486.61 625.3 482.18 614.17 477.65 602.02 473.37 589.09 469.34 575.78 465.1 562.25 461.04 548.8 457.16 535.66 452.99 522.75 448.98 510.32 445.12 498.38 440.99 486.8 437.04 475.67 433.31 464.93 429.38 454.46 425.74 444.25 422.44 434.23 419.08 424.34 416.17 414.51 413.78 404.7 411.48 394.93 409.8 385.11 408.82 375.24 408.08 365.36 408.11 355.67 408.91 346.2 410 336.76 411.86 327.58 414.43 318.74 417.27 309.98 420.77 301.63 424.87 293.77 429.13 286.04 433.91 278.85 439.13 272.26 444.36 265.8 449.95 259.91 455.82 254.59 461.57 249.27 467.53 244.37 473.66 239.79 479.56 234.91 485.6 230.1 491.75 225.18 497.64 219.58 503.64 213.6 509.77 207.11 515.66 199.7 521.7 191.69 527.92 183.11 533.95 173.82 540.2 164.24 546.69 154.64 553.06 145.07 559.71 136.1 566.65 128.08 573.53 121.04 580.74 115.5 588.25 111.69 595.75 109.23 603.57 108.46 611.71 109.22 619.84 110.64 628.28 112.83 637.02 115.31 645.75 117.06 654.77 118.19 664.06 118.39 673.34 116.96 682.89 114.42 692.69 111" stroke-dasharray="0 7" transform="rotate(16.16, 711, 400)" opacity="0.20"></path><path d="M697.15 124.79C706.61 120.44 716.16 116.19 725.77 112.55 735.41 109.47 745.15 107.87 754.97 108.01 764.85 109.56 774.86 112.98 784.98 118.08 795.18 124.26 805.53 131.54 816 139.5 826.58 147.48 837.28 155.41 848.06 162.99 858.91 169.69 869.79 175.68 880.64 180.94 891.43 185.1 902.07 188.66 912.42 191.79 922.52 194.23 932.16 196.66 941.17 199.28 949.67 201.81 957.33 204.91 963.99 208.69 969.89 212.83 974.63 217.83 978.08 223.67 980.67 230.02 981.96 237.19 981.94 245.08 981.23 253.43 979.41 262.35 976.61 271.72 973.61 281.41 970.05 291.39 966.18 301.55 962.82 311.88 959.68 322.28 957.01 332.64 955.54 343.09 954.95 353.43 955.4 363.59 957.39 373.79 960.48 383.76 964.6 393.45 970.01 403.14 975.91 412.29 981.99 420.89 988.5 429.48 994.56 437.51 999.84 445 1004.67 452.5 1008.21 459.5 1010.29 466.07 1011.33 472.75 1010.7 479.13 1008.41 485.32 1004.94 491.86 999.91 498.46 993.48 505.3 986.11 512.8 977.63 520.83 968.26 529.57 958.39 539.24 947.97 549.78 937.2 561.23 926.35 573.52 915.42 586.53 904.54 600.01 893.88 613.61 883.41 627 873.18 639.64 863.31 651.16 853.69 660.98 844.34 668.57 835.34 673.92 826.53 676.52 817.9 676.24 809.53 673.85 801.24 669.2 792.98 662.89 784.89 656.35 776.75 649.85 768.51 644.34 760.36 641.24 752.05 640.69 743.57 643.14 735.12 649.08 726.46 657.83 717.59 668.7 708.72 681.03 699.62 693.28 690.32 704.07 681.02 712.54 671.73 717.18 662.52 717.57 653.31 714.16 644.19 706.84 635.2 696.42 626.25 684.17 617.46 670.87 608.88 657.68 600.37 645.75 592.1 635.66 584.11 627.89 576.22 622.97 568.64 620.53 561.41 620.23 554.28 622.1 547.52 625.02 541.15 628.3 531.9 633.32 515.41 635.66 508.09 631.27 503.28 626.15 498.78 619.17 494.56 610.62 490.2 600.9 486.07 590.08 482.14 578.5 477.98 566.39 473.98 553.97 470.13 541.49 466 528.96 462 516.63 458.15 504.6 454.04 492.74 450.1 481.25 446.36 470.13 442.45 459.2 438.81 448.59 435.5 438.27 432.15 428.07 429.23 418.08 426.81 408.29 424.5 398.53 422.78 388.9 421.74 379.42 420.95 369.94 420.92 360.8 421.62 352.04 422.63 343.28 424.38 334.91 426.84 326.98 429.56 319.08 432.93 311.64 436.9 304.7 441.04 297.81 445.69 291.42 450.79 285.53 455.92 279.63 461.42 274.16 467.2 269.08 472.89 263.81 478.81 258.76 484.89 253.8 490.79 248.4 496.82 242.86 502.96 237.05 508.87 230.53 514.88 223.57 521 216.09 526.88 207.84 532.89 199.12 539.05 190.02 545.01 180.5 551.16 170.96 557.5 161.67 563.71 152.69 570.15 144.52 576.85 137.47 583.46 131.49 590.35 127.02 597.53 124.21 604.66 122.61 612.09 122.52 619.83 123.72 627.53 125.38 635.55 127.59 643.86 129.95 652.16 131.5 660.75 132.39 669.64 132.37 678.51 130.8 687.69 128.21 697.15 124.79" stroke-dasharray="6 8" transform="rotate(20.200000000000003, 711, 400)" opacity="0.24"></path><path d="M702.74 138.58C711.88 134.31 721.12 130.12 730.47 126.46 739.83 123.26 749.31 121.4 758.9 121.12 768.53 122.13 778.28 124.91 788.14 129.33 798.06 134.85 808.1 141.57 818.22 149.13 828.39 156.91 838.63 164.87 848.88 172.71 859.12 179.9 869.32 186.56 879.37 192.58 889.31 197.61 898.99 202.01 908.29 205.88 917.29 208.96 925.75 211.8 933.54 214.6 940.81 217.07 947.24 219.82 952.69 223.02 959.29 228.27 965.78 242.68 965.65 251.92 964.67 258.68 962.77 266.06 960.09 273.96 957.34 282.15 954.18 290.75 950.82 299.64 948 308.72 945.43 317.98 943.31 327.32 942.3 336.76 942.07 346.2 942.75 355.56 944.8 364.96 947.8 374.23 951.67 383.31 956.7 392.4 962.14 401.07 967.74 409.32 973.76 417.57 979.38 425.42 984.36 432.9 988.99 440.44 992.52 447.69 994.79 454.73 996.18 461.95 996.1 469.1 994.54 476.32 991.94 483.92 987.9 491.78 982.54 500.05 976.3 508.92 968.95 518.38 960.69 528.5 951.88 539.31 942.42 550.8 932.51 562.88 922.42 575.37 912.1 588.14 901.71 600.88 891.4 613.28 881.16 624.98 871.05 635.52 861.19 644.69 851.51 651.98 842.05 657.03 832.85 660.04 823.84 660.59 815.01 658.74 806.4 655.35 797.9 650.31 789.49 644.22 781.23 638.4 772.99 633.03 764.73 628.9 756.56 627.18 748.32 627.86 739.98 631.25 731.69 637.69 723.26 646.49 714.71 657.02 706.16 668.7 697.47 680.18 688.65 690.28 679.83 698.3 671.09 702.89 662.45 703.67 653.83 701.05 645.34 694.82 637 685.63 628.7 674.55 620.59 662.19 612.7 649.53 604.86 637.63 597.27 627.01 589.97 618.21 582.74 611.8 575.81 607.61 569.22 605.46 562.69 605.49 556.51 606.85 550.68 608.99 542.17 613.31 526.87 618.02 520 616.41 515.44 613.63 511.13 609.16 507.07 603.13 502.84 595.97 498.79 587.55 494.93 578.12 490.82 567.98 486.85 557.22 483.01 546.08 478.9 534.66 474.91 523.15 471.06 511.7 466.96 500.24 463.03 488.97 459.3 477.97 455.4 467.06 451.78 456.43 448.48 446.11 445.15 435.86 442.23 425.89 439.8 416.21 437.49 406.55 435.75 397.14 434.67 387.99 433.83 378.83 433.73 370.14 434.35 361.9 435.26 353.65 436.9 345.86 439.22 338.53 441.81 331.19 445.04 324.32 448.85 317.89 452.84 311.43 457.34 305.38 462.29 299.71 467.3 293.91 472.67 288.38 478.34 283.06 483.95 277.43 489.8 271.84 495.82 266.17 501.69 259.99 507.71 253.55 513.83 246.78 519.75 239.35 525.77 231.5 531.89 223.22 537.79 214.38 543.8 205.25 549.93 195.98 555.87 186.57 561.96 177.39 568.22 168.7 574.33 160.55 580.64 153.37 587.16 147.41 593.58 142.53 600.25 139.13 607.17 137.26 614.03 136.44 621.16 136.91 628.57 138.45 635.94 140.25 643.61 142.43 651.57 144.6 659.5 145.92 667.73 146.56 676.26 146.32 684.78 144.62 693.6 141.98 702.74 138.58" stroke-dasharray="6 10" transform="rotate(24.24, 711, 400)" opacity="0.28"></path><path d="M709.01 152.38C717.82 148.19 726.75 144.07 735.78 140.42 744.83 137.14 753.99 135.05 763.25 134.38 772.55 134.88 781.95 137.02 791.43 140.74 800.94 145.57 810.52 151.64 820.14 158.66 829.76 166.08 839.39 173.89 848.95 181.77 858.45 189.27 867.82 196.42 876.97 203.09 885.95 208.91 894.59 214.16 902.79 218.86 910.67 222.74 917.96 226.26 924.56 229.55 933.31 233.75 945.46 242.79 948.59 248.3 949.85 254.55 947.14 270.42 943.72 279.97 941.28 286.74 938.54 293.97 935.7 301.58 933.4 309.35 931.37 317.41 929.76 325.67 929.16 334.02 929.26 342.5 930.13 351.04 932.22 359.6 935.11 368.18 938.75 376.73 943.41 385.27 948.41 393.57 953.54 401.63 959.07 409.7 964.28 417.57 968.93 425.26 973.34 433.03 976.8 440.73 979.17 448.41 980.84 456.3 981.21 464.32 980.28 472.54 978.44 481.13 975.29 490.09 970.93 499.48 965.74 509.34 959.49 519.71 952.32 530.59 944.59 541.86 936.16 553.53 927.2 565.44 917.97 577.36 908.42 589.14 898.67 600.47 888.9 611.11 879.09 620.71 869.31 628.91 859.67 635.66 850.13 640.53 840.73 643.28 831.54 644.32 822.49 643.29 813.59 640.36 804.88 636.43 796.29 631.41 787.8 625.87 779.46 620.99 771.17 616.85 762.92 614.09 754.76 613.66 746.59 615.45 738.39 619.63 730.24 626.43 722.04 635.19 713.77 645.32 705.52 656.34 697.2 667.06 688.82 676.48 680.43 684.05 672.18 688.57 664.09 689.7 656 687.79 648.07 682.58 640.35 674.58 632.63 664.69 625.13 653.35 617.87 641.41 610.64 629.78 603.67 618.95 596.99 609.46 590.34 601.88 583.99 596.17 577.95 592.32 569.1 590.36 552.99 593.75 545.71 596.58 538.64 598.81 525.65 596.7 519.61 591.65 515.46 586.86 511.48 580.8 507.64 573.64 503.56 565.73 499.6 557 495.76 547.65 491.66 537.87 487.67 527.75 483.82 517.45 479.74 506.98 475.82 496.51 472.1 486.14 468.24 475.75 464.64 465.53 461.37 455.56 458.07 445.61 455.18 435.9 452.76 426.48 450.45 417.08 448.71 407.95 447.59 399.11 446.72 390.26 446.55 381.9 447.08 374.01 447.9 366.1 449.41 358.64 451.58 351.61 454.02 344.54 457.09 337.86 460.72 331.56 464.55 325.15 468.87 319.04 473.64 313.17 478.49 307.1 483.71 301.15 489.24 295.25 494.74 288.99 500.48 282.64 506.42 276.11 512.24 269.08 518.21 261.77 524.3 254.13 530.21 245.95 536.23 237.46 542.35 228.69 548.26 219.6 554.28 210.42 560.41 201.34 566.35 192.37 572.42 183.86 578.63 176.04 584.69 168.91 590.91 162.84 597.33 158.03 603.62 154.25 610.14 151.85 616.87 150.84 623.53 150.68 630.43 151.61 637.59 153.38 644.7 155.23 652.08 157.3 659.74 159.25 667.37 160.31 675.29 160.69 683.5 160.23 691.69 158.42 700.2 155.74 709.01 152.38" stroke-dasharray="1 2" transform="rotate(28.28, 711, 400)" opacity="0.32"></path><path d="M715.44 166.17C723.92 162.09 732.5 158.06 741.17 154.44 749.85 151.1 758.63 148.82 767.48 147.81 776.36 147.82 785.3 149.36 794.28 152.37 803.27 156.47 812.28 161.82 821.27 168.19 830.23 175.11 839.12 182.57 847.88 190.3 856.54 197.88 865 205.32 873.16 212.45 881.13 218.93 888.71 224.94 895.81 230.45 902.58 235.19 908.75 239.51 914.24 243.51 921.41 248.55 930.87 258.05 933.02 263.14 933.64 268.52 930.63 281.75 927.54 289.68 925.44 295.28 923.15 301.34 920.81 307.82 919.03 314.41 917.49 321.37 916.35 328.63 916.13 335.95 916.5 343.52 917.54 351.29 919.64 359.07 922.42 367.01 925.82 375.09 930.12 383.16 934.71 391.18 939.39 399.13 944.46 407.11 949.24 415.06 953.55 423.03 957.71 431.08 961.06 439.23 963.48 447.5 965.34 455.97 966.07 464.67 965.65 473.66 964.47 482.93 962.12 492.55 958.64 502.55 954.44 512.83 949.23 523.46 943.12 534.36 936.46 545.38 929.08 556.48 921.11 567.48 912.83 578.17 904.15 588.38 895.18 597.82 886.1 606.37 876.88 613.7 867.6 619.53 858.37 624 849.16 626.7 840.02 627.55 831 627.06 822.09 624.94 813.29 621.41 804.63 617.39 796.08 612.75 787.64 608.02 779.31 604.22 771.06 601.36 762.88 599.93 754.79 600.68 746.72 603.43 738.69 608.25 730.7 615.28 722.71 623.91 714.73 633.6 706.76 643.95 698.78 653.93 690.8 662.69 682.81 669.82 675.01 674.23 667.41 675.64 659.8 674.38 652.39 670.12 645.2 663.26 638.02 654.56 631.06 644.31 624.36 633.22 617.67 622.1 611.23 611.35 605.08 601.49 598.93 593.07 593.07 586.15 587.5 580.83 579.28 576.32 564.23 575.29 557.36 576.89 550.62 578.93 538.04 579.3 532.1 576.62 528.01 573.76 524.05 569.76 520.22 564.69 516.15 558.95 512.19 552.31 508.34 544.92 504.25 537.05 500.26 528.65 496.41 519.87 492.36 510.83 488.46 501.59 484.77 492.26 480.96 482.83 477.41 473.43 474.17 464.12 470.92 454.8 468.07 445.63 465.67 436.66 463.4 427.69 461.66 418.93 460.52 410.42 459.61 401.9 459.39 393.8 459.82 386.12 460.54 378.41 461.92 371.08 463.94 364.1 466.22 357.06 469.1 350.31 472.54 343.83 476.17 337.2 480.3 330.75 484.86 324.41 489.52 317.84 494.56 311.27 499.91 304.65 505.26 297.68 510.87 290.54 516.68 283.2 522.41 275.45 528.3 267.44 534.33 259.17 540.21 250.56 546.2 241.77 552.3 232.89 558.22 223.91 564.24 215.07 570.36 206.53 576.3 198.32 582.37 190.73 588.55 183.98 594.58 177.99 600.76 173.09 607.09 169.43 613.31 166.7 619.72 165.22 626.31 164.95 632.83 165.33 639.56 166.58 646.51 168.48 653.41 170.29 660.56 172.18 667.97 173.87 675.33 174.66 682.97 174.78 690.88 174.11 698.78 172.19 706.96 169.49 715.44 166.17" stroke-dasharray="2 3" transform="rotate(32.32, 711, 400)" opacity="0.35"></path><path d="M721.51 179.96C729.63 176 737.83 172.08 746.08 168.52 754.35 165.16 762.68 162.72 771.05 161.4 779.42 160.98 787.82 161.93 796.21 164.26 804.58 167.61 812.93 172.2 821.18 177.83 829.39 184.11 837.47 191.06 845.35 198.45 853.12 205.88 860.62 213.37 867.78 220.74 874.74 227.67 881.28 234.27 887.31 240.47 893.04 246.02 898.17 251.16 902.65 255.95 908.44 262.11 915.67 273.04 917.07 278.34 917.26 283.55 914.27 295.45 911.59 302.36 908.95 309.76 904.34 326.71 903.09 336.19 903.19 342.66 903.8 349.46 904.97 356.57 907.06 363.68 909.72 371.08 912.9 378.75 916.86 386.42 921.04 394.18 925.29 402.04 929.9 409.92 934.27 417.93 938.24 426.08 942.13 434.3 945.33 442.72 947.73 451.35 949.7 460.12 950.7 469.15 950.7 478.46 950.08 487.92 948.41 497.66 945.73 507.64 942.41 517.7 938.15 527.91 933.05 538.15 927.42 548.25 921.08 558.15 914.13 567.67 906.83 576.66 899.08 584.94 890.98 592.25 882.71 598.62 874.22 603.72 865.59 607.37 856.93 609.84 848.22 610.78 839.51 610.19 830.85 608.67 822.23 605.95 813.7 602.28 805.25 598.53 796.88 594.57 788.61 590.83 780.42 588.21 772.32 586.61 764.3 586.42 756.34 588.22 748.45 591.77 740.62 597.08 732.83 604.23 725.08 612.65 717.38 621.85 709.69 631.52 702.04 640.78 694.43 648.9 686.82 655.58 679.43 659.87 672.26 661.51 665.09 660.82 658.14 657.44 651.43 651.65 644.71 644.12 638.22 635.01 632 624.89 625.76 614.46 619.78 604.04 614.07 594.13 608.34 585.22 602.88 577.43 597.69 570.93 589.98 564.17 575.75 558.51 569.17 558.35 562.66 559.38 550.35 560.22 544.46 558.93 538.42 556.17 526.55 545.28 520.7 537.35 516.63 531.38 512.66 524.76 508.82 517.63 504.8 510.22 500.95 502.44 497.3 494.4 493.56 486.22 490.07 477.9 486.88 469.52 483.71 461.09 480.91 452.66 478.56 444.3 476.32 435.94 474.6 427.66 473.44 419.51 472.52 411.35 472.23 403.51 472.58 395.96 473.19 388.38 474.44 381.07 476.3 374 478.41 366.85 481.09 359.88 484.31 353.05 487.73 346.08 491.63 339.18 495.96 332.28 500.4 325.17 505.22 317.98 510.36 310.69 515.52 303.11 520.95 295.36 526.6 287.42 532.2 279.21 537.98 270.83 543.89 262.31 549.71 253.64 555.64 244.95 561.68 236.36 567.58 227.88 573.57 219.71 579.66 212.03 585.6 204.82 591.65 198.34 597.79 192.78 603.81 187.98 609.95 184.25 616.22 181.67 622.39 179.9 628.71 179.22 635.19 179.55 641.59 180.33 648.18 181.78 654.96 183.7 661.69 185.39 668.63 187.06 675.8 188.45 682.93 188.95 690.31 188.81 697.92 187.94 705.52 185.93 713.39 183.22 721.51 179.96" stroke-dasharray="5 5" transform="rotate(36.36, 711, 400)" opacity="0.39"></path><path d="M726.71 193.75C734.45 189.92 742.22 186.13 750.02 182.64 757.82 179.29 765.65 176.74 773.46 175.17 781.27 174.35 789.05 174.77 796.78 176.44 804.48 179.05 812.09 182.85 819.56 187.7 826.96 193.23 834.18 199.53 841.16 206.39 848.02 213.46 854.57 220.76 860.75 228.12 866.74 235.25 872.28 242.2 877.33 248.89 882.11 255.09 886.33 260.95 889.93 266.49 894.55 273.84 900.02 286.78 900.89 292.76 900.84 298.36 898.14 310.18 895.93 316.69 893.89 323.45 890.62 338.79 889.96 347.39 890.34 353.25 891.15 359.48 892.42 366.08 894.49 372.67 897.02 379.62 899.97 386.93 903.6 394.24 907.4 401.75 911.24 409.44 915.42 417.15 919.39 425.07 923.01 433.19 926.6 441.36 929.62 449.76 931.96 458.38 933.98 467.06 935.17 475.97 935.49 485.07 935.31 494.21 934.22 503.49 932.23 512.83 929.69 522.09 926.3 531.29 922.12 540.28 917.46 548.97 912.11 557.25 906.15 564.93 899.86 571.99 893.07 578.21 885.89 583.4 878.51 587.71 870.84 590.82 862.97 592.63 855.01 593.54 846.93 593.19 838.79 591.67 830.65 589.6 822.49 586.73 814.36 583.33 806.28 580.16 798.24 577.09 790.26 574.46 782.35 573.02 774.5 572.64 766.73 573.56 759.01 576.26 751.36 580.46 743.8 586.11 736.26 593.26 728.78 601.39 721.39 610.07 714 619.06 706.68 627.61 699.43 635.11 692.18 641.35 685.16 645.49 678.39 647.32 671.61 647.12 665.06 644.53 658.75 639.76 652.44 633.35 646.36 625.38 640.53 616.31 634.68 606.72 629.07 596.87 623.72 587.18 618.33 578.12 613.19 569.82 608.28 562.48 600.97 553.89 587.34 543.82 580.97 541.62 574.61 541.06 562.45 540.67 556.58 539.79 550.55 538.16 538.67 530.92 532.83 525.23 528.78 520.87 524.83 515.85 521.02 510.26 517.07 504.42 513.28 498.11 509.69 491.42 506.03 484.58 502.62 477.45 499.52 470.11 496.43 462.71 493.71 455.16 491.4 447.53 489.22 439.88 487.53 432.18 486.37 424.45 485.43 416.72 485.09 409.14 485.35 401.73 485.86 394.29 486.98 386.99 488.66 379.79 490.59 372.53 493.07 365.34 496.05 358.18 499.24 350.9 502.89 343.6 506.96 336.24 511.16 328.72 515.72 321.09 520.61 313.35 525.55 305.42 530.76 297.36 536.2 289.19 541.62 280.89 547.23 272.53 553 264.18 558.69 255.85 564.52 247.66 570.45 239.74 576.28 232.08 582.21 224.88 588.23 218.29 594.14 212.24 600.14 206.98 606.23 202.64 612.21 199.02 618.3 196.39 624.5 194.79 630.61 193.84 636.84 193.8 643.21 194.57 649.51 195.62 655.96 197.16 662.58 198.99 669.14 200.5 675.89 201.89 682.83 202.97 689.73 203.18 696.84 202.79 704.15 201.74 711.45 199.65 718.98 196.94 726.71 193.75" stroke-dasharray="7 6" transform="rotate(40.400000000000006, 711, 400)" opacity="0.43"></path><path d="M730.63 207.54C737.95 203.86 745.26 200.22 752.55 196.82 759.85 193.52 767.11 190.89 774.32 189.11 781.52 187.96 788.65 187.9 795.67 188.95 802.65 190.85 809.5 193.86 816.16 197.89 822.75 202.61 829.11 208.14 835.2 214.31 841.17 220.83 846.81 227.71 852.07 234.81 857.16 241.86 861.81 248.91 865.99 255.83 869.94 262.44 873.37 268.82 876.24 274.95 879.91 283.37 884.05 298.45 884.6 305.35 884.48 311.72 882.27 324.43 880.57 331.05 879.13 337.72 877.11 352.41 876.96 360.53 877.58 366.04 878.55 371.9 879.9 378.12 881.92 384.33 884.32 390.92 887.05 397.89 890.36 404.85 893.79 412.05 897.24 419.45 901 426.87 904.57 434.5 907.86 442.33 911.15 450.18 913.95 458.22 916.19 466.42 918.19 474.62 919.49 482.94 920.06 491.34 920.22 499.67 919.6 507.99 918.19 516.2 916.32 524.22 913.69 531.99 910.34 539.39 906.58 546.39 902.15 552.83 897.15 558.57 891.81 563.72 885.98 567.98 879.74 571.26 873.28 573.82 866.49 575.33 859.45 575.76 852.29 575.57 844.95 574.45 837.49 572.49 829.99 570.33 822.42 567.71 814.83 564.88 807.24 562.52 799.66 560.47 792.11 559 784.58 558.71 777.1 559.43 769.69 561.33 762.31 564.77 754.99 569.45 747.74 575.3 740.52 582.35 733.37 590.12 726.3 598.25 719.25 606.57 712.26 614.42 705.37 621.31 698.47 627.12 691.82 631.1 685.4 633.06 678.98 633.29 672.79 631.4 666.84 627.56 660.88 622.23 655.14 615.39 649.64 607.41 644.11 598.78 638.81 589.68 633.74 580.48 628.62 571.57 623.73 563.1 619.04 555.28 614.3 548.37 609.75 542.34 605.4 537.19 598.83 531.47 586.32 524.75 580.33 522.93 574.25 521.88 562.36 519.13 556.51 516.79 550.5 513.75 538.73 504.44 533.03 498.2 529.15 493.67 525.45 488.64 521.94 483.16 518.39 477.56 515.08 471.57 512.07 465.26 509.08 458.89 506.45 452.25 504.22 445.39 502.1 438.5 500.45 431.42 499.29 424.18 498.35 416.94 497.96 409.7 498.14 402.49 498.55 395.27 499.53 388.04 501.04 380.82 502.78 373.56 505.04 366.27 507.78 358.93 510.72 351.52 514.1 344.03 517.89 336.46 521.81 328.8 526.1 321.04 530.7 313.2 535.38 305.28 540.33 297.31 545.51 289.31 550.71 281.33 556.1 273.4 561.66 265.62 567.18 258.01 572.84 250.66 578.62 243.71 584.33 237.13 590.14 231.09 596.05 225.72 601.87 220.9 607.78 216.88 613.77 213.72 619.68 211.19 625.69 209.53 631.78 208.76 637.8 208.47 643.93 208.91 650.17 209.97 656.34 211.15 662.65 212.65 669.08 214.31 675.48 215.58 682.02 216.66 688.7 217.41 695.37 217.33 702.19 216.7 709.18 215.48 716.16 213.33 723.31 210.65 730.63 207.54" stroke-dasharray="4 5" transform="rotate(44.44, 711, 400)" opacity="0.47"></path><path d="M732.94 221.34C739.8 217.81 746.62 214.33 753.38 211.06 760.13 207.82 766.81 205.16 773.39 203.23 779.95 201.8 786.4 201.31 792.7 201.82 798.95 203.05 805.04 205.29 810.9 208.5 816.7 212.37 822.24 217.06 827.49 222.43 832.63 228.23 837.44 234.5 841.87 241.1 846.16 247.82 850.03 254.67 853.46 261.54 856.71 268.27 859.5 274.9 861.79 281.38 864.73 290.55 867.97 307.47 868.37 315.29 868.31 322.58 866.74 336.69 865.56 343.75 864.69 350.73 863.79 365.52 864.09 373.48 864.9 378.84 866 384.49 867.39 390.45 869.36 396.4 871.61 402.68 874.12 409.29 877.13 415.91 880.21 422.71 883.3 429.68 886.66 436.66 889.85 443.8 892.79 451.07 895.77 458.33 898.34 465.7 900.44 473.12 902.38 480.5 903.72 487.88 904.45 495.19 904.87 502.38 904.61 509.41 903.68 516.19 902.38 522.72 900.4 528.87 897.78 534.54 893.01 542.15 880.22 553.15 872.43 556.21 866.89 557.44 861 557.82 854.82 557.38 848.51 556.59 841.97 555.17 835.27 553.23 828.51 551.35 821.62 549.29 814.66 547.27 807.69 545.85 800.67 544.87 793.64 544.53 786.63 545.29 779.62 546.99 772.65 549.7 765.69 553.7 758.78 558.71 751.93 564.63 745.09 571.48 738.32 578.83 731.62 586.39 724.93 594.04 718.31 601.21 711.77 607.52 705.23 612.9 698.93 616.69 692.85 618.74 686.77 619.32 680.91 618.06 675.27 615.07 669.62 610.74 664.18 605 658.95 598.12 653.69 590.53 648.64 582.32 643.79 573.8 638.9 565.33 634.19 557.01 629.67 549.05 625.09 541.71 620.68 534.99 616.43 528.95 609.99 521.52 597.65 511.02 591.69 507.47 585.64 504.98 573.78 500.6 567.95 498.12 562 495.41 550.4 487.79 544.81 482.75 539.24 477.1 529.03 463.39 524.54 455.45 521.67 449.99 519.15 444.18 517 438.06 514.96 431.91 513.36 425.48 512.22 418.77 511.27 412.06 510.85 405.25 510.95 398.35 511.26 391.45 512.1 384.46 513.44 377.39 514.99 370.31 517.02 363.14 519.51 355.88 522.18 348.6 525.28 341.23 528.77 333.79 532.39 326.33 536.37 318.81 540.66 311.26 545.03 303.75 549.68 296.25 554.57 288.84 559.49 281.55 564.61 274.42 569.91 267.56 575.2 260.94 580.64 254.69 586.2 248.92 591.72 243.55 597.36 238.76 603.09 234.64 608.76 231.03 614.52 228.16 620.36 226.08 626.14 224.48 632.01 223.64 637.96 223.51 643.85 223.7 649.82 224.45 655.89 225.65 661.91 226.82 668.03 228.19 674.25 229.6 680.44 230.58 686.74 231.33 693.15 231.74 699.54 231.39 706.06 230.55 712.69 229.18 719.32 226.99 726.07 224.34 732.94 221.34" stroke-dasharray="5 7" transform="rotate(48.48, 711, 400)" opacity="0.51"></path><path d="M733.45 235.13C739.83 231.78 746.13 228.47 752.32 225.34 758.51 222.21 764.58 219.56 770.52 217.52 782.35 214.73 793.53 215.42 803.82 219.62 813.85 226.25 822.78 235.78 830.33 247.33 837.41 259.75 842.95 272.88 846.8 286.04 850.18 298.58 851.98 310.65 852.3 322.17 852.66 332.78 852.07 343.12 850.9 353.43 850.74 363.19 850.78 373.36 851.33 384.14 852.3 389.47 853.49 395.01 854.9 400.76 856.79 406.51 858.9 412.49 861.2 418.72 863.91 424.94 866.67 431.28 869.4 437.69 872.38 444.09 875.21 450.57 877.82 457.07 883.16 470 886.9 482.81 888.72 495.02 889.64 506.63 888.2 516.99 884.48 525.43 879.61 532.54 872.62 537.12 863.91 538.88 854.4 539.39 843.57 537.65 831.86 534.4 819.82 532.16 807.22 530.62 794.41 531.08 781.55 535.49 768.61 543.24 755.81 554.07 749.42 560.63 743.08 567.52 736.78 574.49 730.5 581.47 724.27 587.99 718.11 593.73 711.95 598.68 705.99 602.27 700.25 604.37 694.5 605.24 688.95 604.52 683.6 602.28 672.84 594.4 662.83 582 653.55 566.97 644.08 551.38 635.23 536.16 626.98 522.49 618.39 511.28 610.24 502.2 602.54 494.93 594.36 489.8 586.5 485.32 579 480.77 571.03 476.92 563.43 472.03 556.38 465.79 549.06 459.48 542.49 451.59 536.93 442.16 533 434.84 527.03 418.41 525.15 409.36 524.21 403.22 523.75 396.91 523.78 390.46 524 384.01 524.7 377.43 525.86 370.74 528.78 357.37 533.45 343.58 539.63 329.63 546.38 315.84 554.4 302.13 563.42 288.98 572.66 276.55 582.68 265.3 593.25 255.89 603.77 247.99 614.74 242.49 626.02 239.69 637.15 238.31 648.61 239.09 660.32 241.5 671.9 243.37 683.83 245.14 696.02 245.97 702.1 245.36 708.27 244.31 714.51 242.82 720.75 240.61 727.07 238.02 733.45 235.13" stroke-dasharray="4 0" transform="rotate(52.52, 711, 400)" opacity="0.54"></path><path d="M732.12 248.92C743.87 242.31 755.14 236.35 765.78 231.98 776.35 228.77 786.19 228.51 795.09 231.32 803.78 236.27 811.38 243.99 817.71 253.83 823.7 264.81 828.33 276.89 831.52 289.41 834.45 301.81 836.08 314.08 836.54 325.99 837.19 337.32 837.13 348.36 836.63 359.19 837.08 369.6 837.69 380.11 838.7 390.86 841.25 401.47 844.48 412.57 848.27 424.16 853.46 435.75 858.48 447.3 862.94 458.59 867.69 469.74 871.11 480.34 872.92 489.97 874.11 499.04 873.3 506.65 870.54 512.37 866.88 517.12 861.33 519.73 854.17 520.16 846.31 520.11 837.16 518.66 827.06 516.54 816.6 515.88 805.48 516.29 794 518.67 782.43 524.43 770.65 532.87 758.88 543.59 747.11 556.33 735.39 569.07 723.86 579.94 712.34 588.16 701.5 591.32 691.37 589.21 681.18 583.11 671.6 572.84 662.66 559.8 653.54 545.69 644.94 531.2 636.83 517.43 628.43 505.25 620.41 494.63 612.76 485.57 604.73 478.36 596.99 472.06 589.62 466.15 581.88 461.15 574.53 455.7 567.73 449.45 560.76 443.37 554.51 436.11 549.24 427.56 544.18 418.99 540.36 409.11 538.07 397.96 536.39 386.81 536.51 374.98 538.33 362.74 540.84 350.58 544.97 338.11 550.51 325.68 556.59 313.56 563.88 301.78 572.14 290.83 580.66 280.7 589.97 271.91 599.84 264.96 609.76 259.29 620.13 255.74 630.81 254.43 641.43 254 652.35 255.16 663.46 257.41 674.51 258.81 685.81 259.91 697.27 260.06 708.72 257.74 720.37 253.93 732.12 248.92" stroke-dasharray="10 8" transform="rotate(56.56, 711, 400)" opacity="0.58"></path><path d="M729.06 262.71C739.75 256.53 749.88 250.92 759.32 246.6 768.69 243.12 777.3 242.09 784.98 243.66 792.49 247.03 798.99 252.96 804.34 260.96 809.47 270.2 813.43 280.78 816.19 292.12 818.85 303.73 820.48 315.54 821.19 327.24 822.17 338.69 822.62 349.93 822.74 360.9 823.72 371.61 824.81 382.23 826.16 392.79 828.8 403.25 831.89 413.82 835.35 424.45 839.95 435.08 844.32 445.25 848.17 454.78 852.33 464.18 855.38 472.71 857.09 480.07 858.23 489.73 851.2 500.23 843.26 501.07 836.9 501.22 829.3 500.66 820.74 500.04 811.84 501.06 802.21 503.27 792.11 507.25 781.89 514.01 771.34 522.8 760.68 533.16 750 544.92 739.25 556.41 728.57 566.14 717.88 573.69 707.74 576.99 698.18 575.84 688.57 571.36 679.45 563.11 670.85 552.13 662.1 539.8 653.76 526.55 645.84 513.34 637.67 500.96 629.82 489.54 622.32 479.28 614.5 470.45 606.97 462.53 599.81 455.22 592.38 448.83 585.34 442.44 578.87 435.71 572.29 429.3 566.43 422.14 561.49 414.09 556.76 406.08 553.19 397.04 551 386.99 549.35 376.94 549.33 366.39 550.83 355.6 552.96 344.91 556.55 334.14 561.44 323.63 566.82 313.47 573.34 303.9 580.79 295.32 588.53 287.49 597.03 281.02 606.1 276.27 615.27 272.46 624.91 270.41 634.86 270.12 644.81 270.22 655.05 271.41 665.44 273.26 675.82 274.09 686.37 274.48 697.01 274 707.64 271.37 718.36 267.51 729.06 262.71" stroke-dasharray="2 10" transform="rotate(60.599999999999994, 711, 400)" opacity="0.62"></path><path d="M724.52 276.51C734.14 270.78 743.15 265.55 751.46 261.38 759.72 257.76 767.22 256.14 773.85 256.68 780.36 258.65 785.96 262.87 790.55 269.02 795.03 276.38 798.53 285.17 801.06 294.92 803.6 305.18 805.32 315.92 806.33 326.79 807.67 337.69 808.59 348.52 809.25 359.13 810.66 369.64 812.12 379.97 813.73 390.04 816.38 400.08 819.31 409.95 822.42 419.54 826.46 429.13 830.23 437.97 833.5 445.92 838.41 457.19 842.58 473.62 841.13 478.33 837.55 481.52 823.12 483.88 812.89 485.23 805.46 487.83 797.27 491.57 788.53 496.78 779.67 504.14 770.4 512.95 760.88 522.75 751.34 533.46 741.61 543.71 731.83 552.35 722.04 559.22 712.65 562.55 703.7 562.21 694.7 559.13 686.08 552.75 677.87 543.81 669.54 533.43 661.53 521.79 653.86 509.7 646.01 497.84 638.42 486.38 631.14 475.65 623.64 465.86 616.42 456.82 609.56 448.42 602.52 440.79 595.89 433.42 589.8 426.07 583.69 419.07 578.25 411.74 573.67 403.93 569.31 396.19 565.99 387.81 563.92 378.79 562.32 369.77 562.18 360.55 563.39 351.34 565.14 342.23 568.21 333.3 572.44 324.84 577.12 316.71 582.86 309.31 589.45 302.96 596.34 297.2 603.96 292.71 612.15 289.69 620.47 287.26 629.26 286.22 638.35 286.46 647.49 286.71 656.91 287.65 666.45 288.92 676.02 289.11 685.72 288.83 695.43 287.78 705.16 284.9 714.9 281.06 724.52 276.51" stroke-dasharray="9 2" transform="rotate(64.64, 711, 400)" opacity="0.66"></path><path d="M718.87 290.3C727.42 285.05 735.36 280.24 742.64 276.3 753.13 271.66 770.26 272.51 776.74 278.28 780.73 283.74 783.93 290.62 786.36 298.54 788.87 307.07 790.75 316.26 792.07 325.79 793.72 335.52 795.05 345.36 796.16 355.09 797.88 364.84 799.61 374.43 801.39 383.7 803.99 392.97 806.72 401.95 809.5 410.46 813.01 418.99 816.21 426.62 818.95 433.3 824.98 449.44 823.27 463.59 818.38 465.77 814.42 467.73 809.43 469.79 803.57 472.32 797.47 476.23 790.63 481.13 783.2 487.14 775.65 494.73 767.63 503.27 759.27 512.34 750.88 521.94 742.22 530.97 733.38 538.56 724.54 544.73 715.95 548.02 707.67 548.31 699.35 546.43 691.3 541.73 683.55 534.73 675.72 526.35 668.13 516.55 660.82 506 653.38 495.25 646.17 484.45 639.24 473.98 632.16 463.99 625.35 454.5 618.9 445.55 612.34 437.14 606.18 429.08 600.56 421.26 594.95 413.74 589.97 406.21 585.79 398.56 581.82 391 578.78 383.18 576.85 375.1 575.32 367.03 575.06 359.09 576.01 351.43 577.4 343.84 579.96 336.67 583.56 330.12 587.54 323.81 592.48 318.31 598.2 313.82 604.2 309.7 610.9 306.69 618.12 304.87 625.51 303.31 633.34 302.77 641.48 303.12 649.7 303.2 658.17 303.68 666.77 304.27 675.41 303.81 684.15 302.91 692.87 301.37 701.61 298.33 710.33 294.57 718.87 290.3" stroke-dasharray="3 0" transform="rotate(68.68, 711, 400)" opacity="0.70"></path><path d="M712.58 304.09C720.06 299.34 726.99 295 733.32 291.36 742.46 286.73 757.44 285.32 763.23 288.91 766.87 292.63 769.88 297.63 772.28 303.66 774.8 310.29 776.84 317.66 778.45 325.51 780.36 333.65 782 342.04 783.44 350.46 785.38 358.99 787.28 367.43 789.14 375.61 791.62 383.82 794.13 391.72 796.58 399.17 799.59 406.62 802.26 413.22 804.51 418.96 809.52 433.15 808.53 447.61 804.71 451.23 801.64 454.28 797.67 457.58 792.92 461.34 787.99 466.22 782.36 471.84 776.14 478.23 769.82 485.69 763 493.71 755.78 501.9 748.54 510.35 740.95 518.19 733.1 524.77 725.25 530.25 717.52 533.41 709.98 534.16 702.42 533.25 695.03 530.02 687.84 524.8 680.61 518.35 673.55 510.5 666.72 501.73 659.81 492.53 653.08 482.96 646.63 473.38 640.08 463.94 633.79 454.71 627.84 445.85 621.85 437.29 616.25 429.04 611.14 421.12 606.09 413.42 601.61 405.88 597.86 398.49 594.29 391.18 591.55 383.91 589.77 376.71 588.33 369.52 587.99 362.73 588.69 356.44 590.79 347.34 600.19 332.66 607.13 327.49 612.23 324.51 617.97 322.43 624.2 321.26 630.59 320.08 637.41 319.62 644.52 319.73 651.72 319.43 659.16 319.32 666.73 319.2 674.35 318.14 682.05 316.7 689.73 314.78 697.44 311.67 705.09 308.04 712.58 304.09" stroke-dasharray="5 4" transform="rotate(72.72, 711, 400)" opacity="0.73"></path><path d="M706.15 317.88C712.6 313.66 718.58 309.81 724.05 306.53 731.96 302.11 745.12 299.17 750.37 301.02 755.16 304.91 762.61 318.34 765.51 327.13 767.59 333.47 769.44 340.17 771.1 347.03 773.15 354.02 775.11 361.05 776.96 367.95 779.28 374.89 781.53 381.63 783.65 388.04 787.29 397.32 792.93 412.6 794.5 418.71 795.45 424.44 793.49 434.49 790.5 439.5 788.11 443.44 784.98 447.65 781.16 452.25 777.22 457.65 772.65 463.55 767.52 469.9 762.33 476.92 756.63 484.19 750.51 491.4 744.37 498.68 737.85 505.36 731.01 510.98 724.17 515.76 717.36 518.71 710.64 519.79 703.91 519.63 697.26 517.62 690.76 513.96 684.24 509.29 677.83 503.34 671.6 496.44 665.33 489.03 659.23 481.08 653.36 472.87 647.45 464.57 641.79 456.26 636.44 448.1 631.1 440.06 626.11 432.22 621.58 424.68 617.12 417.25 613.18 410.05 609.88 403.15 606.73 396.28 604.3 389.64 602.7 383.28 601.16 374.02 603.02 358.49 606.24 352.37 610.6 347.02 622.91 339.96 630.53 338.12 635.9 336.95 641.67 336.26 647.71 335.91 653.84 335.1 660.21 334.38 666.69 333.6 673.23 332.02 679.86 330.17 686.47 327.99 693.11 324.9 699.71 321.48 706.15 317.88" stroke-dasharray="0 6" transform="rotate(76.76, 711, 400)" opacity="0.77"></path><path d="M700.13 331.68C711.02 324 720.41 318.24 728.08 315.27 735.79 313.33 741.97 315.2 746.62 320.37 751.74 326.94 755.87 336.02 759.12 346.41 763.49 357.27 767.46 368.62 770.73 379.46 775.19 390.3 778.11 399.54 779.24 407.28 780.55 415.47 779.44 423.09 775.94 430.72 772.13 440.08 765.89 450.59 757.62 462 749.16 474.9 738.9 487.38 727.28 497.18 715.66 504.61 703.86 506.11 692.45 502.19 681 495.23 669.85 484.34 659.54 471.48 649.2 457.84 639.76 443.7 631.9 430.28 624.32 416.98 618.64 404.47 615.62 393.4 613.42 382.32 614.33 373.62 617.87 367.33 622.2 360.97 628.91 356.84 637.28 354.68 646.12 351.64 656.3 349.43 667.05 347.37 677.97 342.86 689.23 337.49 700.13 331.68" stroke-dasharray="10 8" transform="rotate(80.80000000000001, 711, 400)" opacity="0.81"></path><path d="M694.99 345.47C703.95 339.01 711.84 334.12 718.47 331.31 727.97 329.15 742.14 339.22 747.47 349.73 751.52 357.55 755.06 366.27 757.8 375.24 761.35 384.22 763.52 392.58 764.2 400.3 765.09 408.39 764.1 416.49 761.26 424.75 758.28 434.08 753.38 444.12 746.78 454.36 740.07 465.28 731.78 475.48 722.21 483.39 712.64 489.68 702.77 491.6 693.11 489.49 683.46 485.27 674.02 477.8 665.28 468.37 656.6 458.1 648.69 446.92 642.14 435.94 635.84 424.88 631.11 414.31 628.55 404.93 626.57 395.54 627.09 388.13 629.73 382.66 632.93 377 638.06 372.92 644.6 370.16 651.48 366.54 659.53 363.41 668.15 360.44 676.89 355.72 686.03 350.6 694.99 345.47" stroke-dasharray="11 4" transform="rotate(84.84, 711, 400)" opacity="0.85"></path><path d="M691.17 359.26C698.27 354.05 704.69 350.11 710.27 347.72 718.36 345.22 731.17 350.41 736.13 357.39 739.67 362.69 742.68 369.11 744.88 376.3 747.58 383.49 749.09 390.79 749.42 398.03 749.92 405.49 749 413.23 746.68 421.13 744.35 429.55 740.54 438.29 735.42 446.82 730.24 455.54 723.78 463.48 716.23 469.6 708.68 474.7 700.8 476.73 693.05 475.91 685.33 473.78 677.74 469.18 670.73 462.9 663.8 455.94 657.51 447.94 652.31 439.7 647.32 431.32 643.56 423.03 641.47 415.4 639.89 404.63 645.91 389.27 652.61 383.85 657.68 379.87 663.72 376.21 670.31 372.76 676.98 368.21 684.06 363.59 691.17 359.26" stroke-dasharray="10 1" transform="rotate(88.88, 711, 400)" opacity="0.89"></path><path d="M688.97 373.05C699.56 364.85 708.79 361.22 715.62 362.66 723.03 364.53 728.95 371.5 731.95 382.39 736.05 393.28 736.09 406.21 732.41 419.15 728.79 432.83 720.96 446.54 709.82 455.81 698.66 462.83 686.52 461.67 676.06 454.69 665.88 446.06 657.78 434.16 654.4 422.6 651.93 411.04 654.88 401.91 661.42 395.27 668.46 387.11 678.37 379.27 688.97 373.05" stroke-dasharray="9 10" transform="rotate(92.92, 711, 400)" opacity="0.92"></path><path d="M688.57 386.84C698.91 380.22 714.81 382.76 719.02 392.24 721.57 399.61 721.31 408.84 718.64 417.99 716.06 427.22 710.82 436.12 703.5 442.01 696.17 446.92 688.24 447.12 681.46 443.68 674.83 439.52 669.56 432.72 667.32 424.99 665.5 417.25 667.12 410.05 671.1 404.12 675.28 397.55 681.51 391.37 688.57 386.84" stroke-dasharray="4 1" transform="rotate(96.96, 711, 400)" opacity="0.96"></path></g></svg>