<svg xmlns="http://www.w3.org/2000/svg" version="1.1" xmlns:xlink="http://www.w3.org/1999/xlink" xmlns:svgjs="http://svgjs.dev/svgjs" viewBox="0 0 1422 800"><defs><filter id="uuunion-blur" x="-100%" y="-100%" width="400%" height="400%" color-interpolation-filters="sRGB">
        <feGaussianBlur in="SourceGraphic" stdDeviation="7.5 0" result="blur"></feGaussianBlur>
        <feDropShadow stdDeviation="12.307692307692308" in="blur" dx="10" dy="10" flood-color="hsl(353, 98%, 41%)" flood-opacity="0.25" x="0%" y="0%" width="100%" height="100%"></feDropShadow>
      </filter><filter id="uuunion-blur2" x="-100%" y="-100%" width="400%" height="400%" color-interpolation-filters="sRGB">
        <feGaussianBlur in="SourceGraphic" stdDeviation="7.5 0" result="blur"></feGaussianBlur>
        <feDropShadow stdDeviation="12.307692307692308" in="blur" dx="-10" dy="-10" flood-color="hsl(353, 98%, 41%)" flood-opacity="0.25" x="0%" y="0%" width="100%" height="100%"></feDropShadow>
      </filter><linearGradient gradientTransform="rotate(0, 0.5, 0.5)" x1="50%" y1="0%" x2="50%" y2="100%" id="uuunion-grad"><stop stop-color="hsl(37, 91%, 55%)" offset="10%"></stop><stop stop-color="hsl(353, 98%, 41%)" offset="90%"></stop></linearGradient><linearGradient gradientTransform="rotate(135, 0.5, 0.5)" x1="50%" y1="0%" x2="50%" y2="100%" id="uuunion-grad2"><stop stop-color="hsl(37, 91%, 55%)" offset="25%"></stop><stop stop-color="hsl(353, 98%, 41%)" offset="100%"></stop></linearGradient><linearGradient gradientTransform="rotate(333, 0.5, 0.5)" x1="50%" y1="0%" x2="50%" y2="100%" id="uuunion-grad3"><stop stop-color="hsl(37, 91%, 55%)" offset="0%"></stop><stop stop-color="hsl(353, 98%, 41%)" offset="75%"></stop></linearGradient></defs><path d="M-131.54 -87.68Q-118.55 -86.4 -105.56 -84.73 -92.57 -82.78 -79.58 -80.65 -66.59 -78.49 -53.6 -76.42 -40.61 -74.56 -27.63 -73.03 -14.64 -71.93 -1.65 -71.31 11.33 -71.22 24.32 -71.67 37.31 -72.62 50.3 -74.01 63.29 -75.77 76.28 -77.78 89.27 -79.93 102.26 -82.08 115.25 -84.11 128.23 -85.89 141.22 -87.31 154.21 -88.28 167.2 -88.75 180.19 -88.7 193.18 -88.11 206.17 -87.03 219.16 -85.53 232.15 -83.69 245.14 -81.62 258.13 -79.46 271.12 -77.33 284.11 -75.36 297.09 -73.67 310.08 -72.37 323.07 -71.53 336.06 -71.2 349.05 -71.4 362.04 -72.13 375.03 -73.33 388.02 -74.94 401.01 -76.85 414 -78.95 426.99 -81.12 439.98 -83.22 452.97 -85.12 465.96 -86.72 478.94 -87.9 491.93 -88.61 504.92 -88.79 517.91 -88.44 530.9 -87.58 543.89 -86.25 556.88 -84.55 569.87 -82.58 582.86 -80.44 595.85 -78.28 608.84 -76.22 621.83 -74.39 634.82 -72.91 647.8 -71.85 660.79 -71.28 673.78 -71.24 686.77 -71.74 699.76 -72.73 712.75 -74.17 725.74 -75.96 738.73 -77.99 751.72 -80.14 764.71 -82.29 777.7 -84.3 790.69 -86.04 803.68 -87.42 816.67 -88.35 829.65 -88.77 842.64 -88.66 855.63 -88.03 868.62 -86.9 881.61 -85.36 894.6 -83.49 907.59 -81.41 920.58 -79.25 933.57 -77.13 946.56 -75.18 959.55 -73.53 972.54 -72.27 985.53 -71.47 998.52 -71.2 1011.5 -71.45 1024.49 -72.23 1037.48 -73.47 1050.47 -75.11 1063.46 -77.05 1076.45 -79.17 1089.44 -81.33 1102.43 -83.42 1115.42 -85.29 1128.41 -86.85 1141.4 -87.99 1154.39 -88.65 1167.38 -88.78 1180.37 -88.38 1193.36 -87.47 1206.34 -86.1 1219.33 -84.37 1232.32 -82.37 1245.31 -80.23 1258.3 -78.07 1271.29 -76.03 1284.28 -74.23 1297.27 -72.78 1310.26 -71.77 1323.25 -71.25 1336.24 -71.27 1349.23 -71.82 1362.22 -72.86 1375.21 -74.33 1388.2 -76.15 1401.18 -78.2 1414.17 -80.36 1427.16 -82.5 1440.15 -84.48 1453.14 -86.2 1466.13 -87.53 1479.12 -88.41 1492.11 -88.78 1505.1 -88.62 1518.09 -87.94 1531.08 -86.77 1533.96 -71.94 1538.79 -57.12 1545.25 -42.29 1552.92 -27.46 1561.33 -12.63 1569.91 2.18 1578.13 17.01 1585.46 31.84 1591.41 46.66 1595.62 61.49 1597.8 76.32 1597.83 91.14 1595.69 105.97 1591.53 120.8 1585.61 135.62 1578.32 150.45 1570.11 165.28 1561.53 180.1 1553.12 194.93 1545.41 209.76 1538.92 224.58 1534.05 239.41 1531.12 254.24 1530.32 269.06 1531.69 283.89 1535.15 298.72 1540.48 313.54 1547.34 328.37 1555.28 343.2 1563.79 358.03 1572.33 372.85 1580.34 387.68 1587.32 402.51 1592.81 417.33 1596.46 432.16 1598.04 446.99 1597.44 461.81 1594.7 476.64 1590 491.47 1583.65 506.29 1576.04 521.12 1567.67 535.95 1559.08 550.77 1550.82 565.6 1543.41 580.43 1537.35 595.25 1533.01 610.08 1530.67 624.91 1530.49 639.73 1532.48 654.56 1536.5 669.39 1542.31 684.21 1549.52 699.04 1557.68 713.87 1566.25 728.7 1574.7 743.52 1582.46 758.35 1589.06 773.18 1594.05 788 1597.13 802.83 1598.09 817.66 1596.87 832.48 1593.55 847.31 1588.34 862.14 1574.76 859.06 1561.18 857.25 1547.6 856.82 1534.02 857.8 1520.44 860.12 1506.86 863.65 1493.27 868.17 1479.69 873.4 1466.11 879.04 1452.53 884.73 1438.95 890.14 1425.37 894.93 1411.79 898.82 1398.21 901.56 1384.63 903 1371.05 903.04 1357.47 901.68 1343.89 899.01 1330.31 895.19 1316.73 890.44 1303.15 885.07 1289.57 879.38 1275.99 873.73 1262.41 868.46 1248.83 863.89 1235.25 860.3 1221.66 857.9 1208.08 856.84 1194.5 857.19 1180.92 858.91 1167.34 861.92 1153.76 866.02 1140.18 870.97 1126.6 876.47 1113.02 882.18 1099.44 887.76 1085.86 892.86 1072.28 897.19 1058.7 900.48 1045.12 902.52 1031.54 903.19 1017.96 902.46 1004.38 900.37 990.8 897.04 977.22 892.68 963.64 887.55 950.06 881.96 936.48 876.25 922.89 870.77 909.31 865.85 895.73 861.78 882.15 858.82 868.57 857.15 854.99 856.86 841.41 857.97 827.83 860.42 814.25 864.05 800.67 868.65 787.09 873.94 773.51 879.6 759.93 885.28 746.35 890.64 732.77 895.36 719.19 899.14 705.61 901.76 692.03 903.06 678.45 902.97 664.87 901.48 651.29 898.69 637.71 894.76 624.13 889.94 610.55 884.52 596.96 878.82 583.38 873.19 569.8 867.98 556.22 863.49 542.64 860.01 529.06 857.74 515.48 856.81 501.9 857.3 488.32 859.15 474.74 862.28 461.16 866.47 447.58 871.49 434 877.02 420.42 882.74 406.84 888.28 393.26 893.33 379.68 897.56 366.1 900.73 352.52 902.65 338.94 903.19 325.36 902.32 311.78 900.1 298.2 896.66 284.62 892.21 271.04 887.02 257.45 881.4 243.87 875.7 230.29 870.26 216.71 865.41 203.13 861.44 189.55 858.6 175.97 857.06 162.39 856.9 148.81 858.15 135.23 860.72 121.65 864.46 108.07 869.15 94.49 874.49 80.91 880.16 67.33 885.82 53.75 891.14 40.17 895.77 26.59 899.45 13.01 901.95 -0.56 903.12 -14.14 902.88 -27.72 901.26 -41.3 898.35 -54.88 894.32 -68.46 889.43 -82.04 883.97 -95.62 878.26 -109.2 872.66 -122.79 867.5 -136.37 863.1 -149.95 859.73 -151.62 844.93 -152.69 830.12 -153.08 815.32 -152.77 800.52 -151.78 785.71 -150.18 770.91 -148.06 756.11 -145.56 741.3 -142.85 726.5 -140.09 711.7 -137.47 696.89 -135.15 682.09 -133.28 667.28 -131.99 652.48 -131.35 637.68 -131.41 622.87 -132.16 608.07 -133.55 593.27 -135.5 578.46 -137.88 563.66 -140.54 548.86 -143.3 534.05 -145.99 519.25 -148.44 504.45 -150.48 489.64 -151.99 474.84 -152.87 460.04 -153.06 445.23 -152.56 430.43 -151.38 415.63 -149.62 400.82 -147.38 386.02 -144.8 371.22 -142.05 356.41 -139.32 341.61 -136.77 326.81 -134.56 312 -132.85 297.2 -131.74 282.39 -131.29 267.59 -131.55 252.79 -132.5 237.98 -134.06 223.18 -136.15 208.38 -138.62 193.57 -141.33 178.77 -144.09 163.97 -146.72 149.16 -149.07 134.36 -150.97 119.56 -152.31 104.75 -153 89.95 -152.99 75.15 -152.29 60.34 -150.93 45.54 -149.02 30.74 -146.67 15.93 -144.02 1.13 -141.26 -13.66 -138.56 -28.47 -136.09 -43.27 -134.02 -58.07 -132.47 -72.88 -131.54 -87.68" fill="url(#uuunion-grad)"></path><path d="M-131.55 -87.68Q-132.48 -72.88 -134.03 -58.08 -136.1 -43.27 -138.57 -28.47 -141.27 -13.67 -144.03 1.13 -146.68 15.93 -149.03 30.73 -150.94 45.54 -152.3 60.34 -153 75.15 -153.01 89.95 -152.32 104.75 -150.98 119.56 -149.08 134.36 -146.73 149.16 -144.1 163.97 -141.34 178.77 -138.63 193.57 -136.16 208.38 -134.07 223.18 -132.51 237.98 -131.56 252.79 -131.3 267.59 -131.75 282.39 -132.86 297.2 -134.57 312 -136.78 326.8 -139.33 341.61 -142.06 356.41 -144.81 371.21 -147.39 386.02 -138.39 387.48 -129.39 389.28 -120.39 391.38 -111.39 393.7 -102.39 396.2 -93.39 398.8 -84.39 401.43 -75.4 404.02 -66.4 406.5 -57.4 408.81 -48.4 410.88 -39.4 412.65 -30.4 414.08 -21.4 415.14 -4.4 415.93 -1.39 415.98 10.15 412.36 21.69 408.08 33.2 403.21 44.69 397.83 56.16 392.02 67.59 385.91 79.01 379.62 90.39 373.29 101.74 367.04 113.06 361.02 124.35 355.34 135.61 350.11 146.84 345.41 158.03 341.3 169.2 337.83 180.33 335 191.43 332.8 202.5 331.18 213.54 330.08 224.55 329.41 235.53 329.06 246.48 328.92 257.41 328.86 268.32 328.75 279.2 328.46 290.07 327.88 300.91 326.89 311.74 325.43 322.55 323.41 333.36 320.79 344.15 317.56 354.93 313.72 365.71 309.32 376.48 304.4 387.26 299.04 398.03 293.35 408.81 287.43 419.6 281.39 430.4 275.37 441.21 269.49 452.03 263.85 462.87 258.57 473.73 253.73 484.61 249.4 495.51 245.62 506.44 242.43 517.39 239.81 528.38 237.76 539.4 236.2 550.45 235.09 561.53 234.32 572.65 233.8 583.81 233.42 595 233.06 606.24 232.6 617.51 231.94 628.83 230.97 640.18 229.6 651.58 227.77 663.01 225.41 674.49 222.51 686 219.06 697.56 215.07 709.16 210.59 720.79 205.67 732.46 200.39 744.16 194.86 755.9 189.16 767.67 183.41 779.47 177.72 791.3 172.2 803.16 166.94 815.04 162.04 826.94 157.56 838.85 153.57 850.79 150.08 862.73 147.11 874.69 144.66 886.65 142.69 898.62 141.15 910.58 139.97 922.54 139.06 934.5 138.33 946.44 137.68 958.37 137 970.29 136.19 982.18 135.16 994.05 133.81 1005.88 132.08 1017.69 129.92 1029.46 127.27 1041.19 124.14 1052.89 120.51 1064.53 116.43 1076.13 111.92 1087.68 107.06 1099.17 101.91 1110.6 96.57 1121.98 91.13 1133.29 85.69 1144.54 80.34 1155.72 75.18 1166.84 70.29 1177.88 65.74 1188.86 61.59 1199.76 57.89 1210.59 54.64 1221.34 51.85 1232.02 49.51 1242.63 47.57 1253.16 45.99 1263.61 44.69 1273.99 43.6 1284.3 42.63 1294.54 41.69 1304.7 40.68 1314.8 39.52 1324.82 38.12 1334.79 36.43 1344.69 34.37 1354.53 31.91 1364.31 29.02 1374.04 25.7 1383.72 21.96 1393.35 17.83 1402.93 13.35 1412.48 8.59 1422 3.61 1413.18 -13.97 1405.13 -31.57 1398.56 -49.16 1394.03 -66.76 1391.95 -84.35 1392.49 -101.95 1395.6 -119.54 1401.02 -137.14 1388.94 -135.55 1376.85 -134.19 1364.76 -133.13 1352.67 -132.42 1340.59 -132.11 1328.5 -132.21 1316.41 -132.7 1304.32 -133.58 1292.23 -134.79 1280.15 -136.27 1268.06 -137.94 1255.97 -139.72 1243.88 -141.51 1231.8 -143.22 1219.71 -144.77 1207.62 -146.07 1195.53 -147.05 1183.44 -147.67 1171.36 -147.89 1159.27 -147.71 1147.18 -147.12 1135.09 -146.17 1123.01 -144.89 1110.92 -143.37 1098.83 -141.66 1086.74 -139.87 1074.65 -138.09 1062.57 -136.41 1050.48 -134.91 1038.39 -133.67 1026.3 -132.77 1014.22 -132.23 1002.13 -132.1 990.04 -132.38 977.95 -133.05 965.86 -134.08 953.78 -135.42 941.69 -136.99 929.6 -138.72 917.51 -140.51 905.42 -142.28 893.34 -143.93 881.25 -145.38 869.16 -146.55 857.07 -147.37 844.99 -147.82 832.9 -147.86 820.81 -147.5 808.72 -146.74 796.63 -145.64 784.55 -144.24 772.46 -142.63 760.37 -140.88 748.28 -139.08 736.2 -137.33 724.11 -135.72 712.02 -134.33 699.93 -133.23 687.84 -132.48 675.76 -132.12 663.67 -132.17 651.58 -132.63 639.49 -133.46 627.41 -134.64 615.32 -136.09 603.23 -137.74 591.14 -139.51 579.05 -141.31 566.97 -143.03 554.88 -144.6 542.79 -145.93 530.7 -146.96 518.62 -147.62 506.53 -147.89 494.44 -147.75 482.35 -147.21 470.26 -146.29 458.18 -145.05 446.09 -143.55 434 -141.86 421.91 -140.08 409.82 -138.29 397.74 -136.59 385.65 -135.07 373.56 -133.8 361.47 -132.85 349.39 -132.27 337.3 -132.1 325.21 -132.33 313.12 -132.95 301.03 -133.95 288.95 -135.25 276.86 -136.8 264.77 -138.52 252.68 -140.31 240.6 -142.09 228.51 -143.75 216.42 -145.23 204.33 -146.43 192.24 -147.3 180.16 -147.79 168.07 -147.88 155.98 -147.56 143.89 -146.85 131.81 -145.78 119.72 -144.41 107.63 -142.82 95.54 -141.08 83.45 -139.28 71.37 -137.52 59.28 -135.89 47.19 -134.47 35.1 -133.34 23.01 -132.55 10.93 -132.14 -1.15 -132.15 -13.24 -132.56 -25.33 -133.35 -37.41 -134.49 -49.5 -135.91 -61.59 -137.55 -73.68 -139.31 -85.77 -141.11 -97.85 -142.84 -109.94 -144.44 -122.03 -145.8 -137.83 -139.75 -137.52 -117.69 -134.18 -102.7 -131.55 -87.68" fill="url(#uuunion-grad2)" filter="url(#uuunion-blur)"></path><path d="M1399.15 325.35Q1407.86 323.02 1416.57 320.6 1425.28 318.17 1433.99 315.79 1442.7 313.52 1451.41 311.43 1460.12 309.57 1468.83 307.99 1486.25 306.03 1503.68 305.2 1512.39 305.49 1521.1 306.16 1529.81 307.21 1538.52 308.6 1546.11 325.9 1555.28 343.2 1565.22 360.5 1575.08 377.79 1583.99 395.09 1591.17 412.39 1595.99 429.69 1598.04 446.99 1597.13 464.28 1593.34 481.58 1587.01 498.88 1578.69 516.18 1569.1 533.48 1559.08 550.77 1549.51 568.07 1541.22 585.37 1534.94 602.67 1531.21 619.97 1530.37 637.26 1532.48 654.56 1537.35 671.86 1544.58 689.16 1553.51 706.46 1563.38 723.75 1573.32 741.05 1582.46 758.35 1590.01 775.65 1595.3 792.94 1597.88 810.24 1597.51 827.54 1594.24 844.84 1588.34 862.14 1575.88 859.27 1563.42 857.46 1550.97 856.8 1538.51 857.32 1526.05 859 1513.6 861.76 1501.14 865.44 1488.68 869.87 1476.23 874.82 1463.77 880.03 1451.31 885.23 1438.86 890.17 1426.4 894.6 1413.94 898.27 1401.49 901.01 1389.03 902.68 1376.57 903.19 1364.12 902.52 1351.66 900.69 1339.2 897.81 1326.75 894.02 1314.29 889.52 1301.83 884.52 1289.38 879.3 1276.92 874.11 1264.46 869.22 1252.01 864.88 1239.55 861.32 1227.09 858.7 1214.64 857.18 1202.18 856.82 1189.72 857.64 1177.27 859.6 1164.81 862.61 1152.35 866.5 1139.89 871.08 1127.44 876.12 1114.98 881.36 1102.52 886.52 1090.07 891.35 1077.61 895.6 1065.15 899.06 1052.7 901.54 1040.24 902.92 1027.78 903.13 1015.33 902.16 1002.87 900.06 990.41 896.93 977.96 892.94 965.5 888.29 953.04 883.21 940.59 877.97 928.13 872.83 915.67 868.06 903.22 863.9 890.76 860.56 878.3 858.21 865.85 856.98 853.39 856.91 840.93 858.03 828.48 860.27 816.02 863.52 803.56 867.61 791.11 872.33 778.65 877.44 766.19 882.68 753.74 887.79 741.28 892.49 728.82 896.56 716.37 899.79 703.91 902 691.45 903.09 679 903 666.54 901.73 654.08 899.36 641.62 896 629.17 891.82 616.71 887.03 604.25 881.89 591.8 876.65 579.34 871.58 566.88 866.94 554.43 862.97 541.97 859.87 529.51 857.79 517.06 856.85 504.6 857.09 492.14 858.5 479.69 861 467.23 864.48 454.77 868.75 442.32 873.59 429.86 878.76 417.4 884 404.95 889.02 392.49 893.59 380.03 897.47 367.58 900.45 355.12 902.38 342.66 903.18 330.21 902.79 317.75 901.23 305.29 898.6 292.84 895.01 280.38 890.65 267.92 885.76 255.47 880.56 243.01 875.34 230.55 870.36 218.1 865.86 205.64 862.09 193.18 859.24 180.73 857.44 168.27 856.8 155.81 857.34 143.35 859.03 130.9 861.8 118.44 865.49 105.98 869.93 93.53 874.88 81.07 880.09 68.61 885.3 56.16 890.23 43.7 894.65 31.24 898.31 18.79 901.04 -0.28 897.87 -7.5 882.89 -7.93 872.74 -8.15 862.59 -8.17 852.44 -7.98 842.29 -7.05 827.07 -6 822 7.2 815.07 20.41 807.01 33.63 797.93 46.84 787.99 60.03 777.39 73.18 766.37 86.28 755.19 99.34 744.1 112.33 733.37 125.25 723.23 138.1 713.88 150.88 705.49 163.58 698.15 176.2 691.91 188.75 686.77 201.23 682.65 213.64 679.43 225.99 676.95 238.29 675 250.54 673.33 262.75 671.71 274.94 669.89 287.11 667.64 299.28 664.74 311.46 661.03 323.65 656.38 335.87 650.7 348.13 643.99 360.44 636.27 372.8 627.64 385.23 618.22 397.73 608.2 410.31 597.78 422.97 587.19 435.71 576.65 448.53 566.41 461.43 556.65 474.42 547.58 487.48 539.33 500.61 531.99 513.8 525.63 527.04 520.23 540.33 515.73 553.65 512.04 566.99 509.02 580.33 506.47 593.67 504.21 606.98 502.01 620.25 499.66 633.48 496.96 646.63 493.72 659.7 489.78 672.68 485.03 685.55 479.4 698.3 472.86 710.92 465.44 723.4 457.22 735.74 448.31 747.93 438.85 759.96 429.02 771.84 419.02 783.57 409.05 795.15 399.3 806.59 389.96 816.16 386.66 825.73 383.75 835.28 381.29 844.82 379.31 854.34 377.84 863.86 376.88 873.36 376.43 882.84 376.45 892.32 376.91 901.78 377.75 911.23 378.89 920.67 380.27 930.1 381.79 939.51 383.37 948.92 384.92 958.31 386.33 967.68 387.54 977.05 388.46 986.4 389.02 995.75 389.16 1005.08 388.85 1014.4 388.04 1023.71 386.73 1033.01 384.92 1042.29 382.63 1051.57 379.89 1060.84 376.76 1070.09 373.3 1079.34 369.57 1088.58 365.66 1097.81 361.65 1107.02 357.64 1116.23 353.71 1125.44 349.95 1134.63 346.43 1143.81 343.25 1152.99 340.44 1162.16 338.07 1171.32 336.16 1180.48 334.75 1189.63 333.83 1198.77 333.38 1207.91 333.39 1217.04 333.82 1226.17 334.59 1235.29 335.66 1244.41 336.95 1253.52 338.36 1262.64 339.83 1271.74 341.25 1280.85 342.54 1289.95 343.62 1299.05 344.42 1308.15 344.87 1317.25 344.92 1326.34 344.52 1335.44 343.65 1344.54 342.3 1353.64 340.47 1362.73 338.18 1371.83 335.48 1380.94 332.39 1390.04 328.99 1399.15 325.35" fill="url(#uuunion-grad3)" filter="url(#uuunion-blur2)"></path></svg>